<svg width="27" height="27" viewBox="0 0 27 27" fill="none" xmlns="http://www.w3.org/2000/svg">
<g clip-path="url(#clip0_21_265)">
<path d="M26.5471 2.55573C26.5366 9.68725 26.526 16.8136 26.5155 23.9452C26.5052 23.9605 26.4898 23.9708 26.4846 23.9861C26.3139 25.042 25.3951 25.7533 24.2723 25.7516C16.9973 25.7306 9.7222 25.725 2.44713 25.7091C2.22668 25.7088 1.99599 25.6931 1.78587 25.6363C0.796765 25.3734 0.213474 24.5779 0.215051 23.5115C0.219676 20.3841 0.224309 17.2515 0.228935 14.1241C0.234448 10.3969 0.23996 6.66962 0.245473 2.94236C0.246224 2.4348 0.354594 1.95815 0.667942 1.54846C1.14052 0.939061 1.7766 0.709291 2.53025 0.710406C9.20547 0.725405 15.8807 0.735278 22.561 0.745159C23.1609 0.746046 23.7607 0.75206 24.3606 0.74782C24.904 0.743497 25.3857 0.903144 25.8056 1.24727C26.2204 1.59138 26.4145 2.05822 26.5471 2.55573ZM11.2514 21.354C12.4613 21.3558 13.6251 21.3575 14.8146 21.3593C14.8188 18.4882 14.823 15.6376 14.8273 12.7563C15.422 12.7572 15.9911 12.758 16.5653 12.7589C17.0524 12.7596 17.0524 12.7596 17.1658 12.283C17.3309 11.586 17.4909 10.8941 17.6663 10.1663C16.7127 10.1649 15.7847 10.1635 14.7901 10.1621C14.8423 9.55716 14.8688 8.97786 14.9414 8.40887C14.9777 8.12182 15.1677 7.89139 15.4499 7.77389C15.9372 7.57466 16.4449 7.51389 16.9522 7.69408C17.2801 7.80736 17.5875 7.97187 17.9257 8.12618C18.137 7.32157 18.3536 6.52209 18.565 5.71235C18.1857 5.599 17.8372 5.5062 17.499 5.39291C16.2333 4.97576 14.9567 5.00463 13.6847 5.336C12.6538 5.60107 11.9402 6.24601 11.5542 7.2298C11.3021 7.87542 11.2857 8.5624 11.2795 9.24427C11.2791 9.54163 11.2786 9.83387 11.2782 10.1517C10.7091 10.1509 10.1708 10.1501 9.62732 10.1493C9.62603 11.0209 9.62478 11.8668 9.62348 12.7435C10.1772 12.7443 10.7104 12.7451 11.2692 12.7459C11.2598 15.6324 11.2556 18.4829 11.2514 21.354Z" fill="#00E0C7"/>
</g>
<defs>
<clipPath id="clip0_21_265">
<rect width="26.3523" height="26.2498" fill="white" transform="translate(0.197754 0.112305) rotate(0.0847422)"/>
</clipPath>
</defs>
</svg>
