<svg width="27" height="28" viewBox="0 0 27 28" fill="none" xmlns="http://www.w3.org/2000/svg">
<g clip-path="url(#clip0_21_255)">
<path d="M25.3213 27.1656C17.6309 27.1542 9.94057 27.1428 2.25022 27.1315C1.75312 26.9872 1.29201 26.7763 1.01071 26.3196C0.867513 26.0784 0.775639 25.8014 0.663234 25.5398C0.674608 17.8494 0.685982 10.1591 0.697356 2.46873C0.821009 2.05876 0.960049 1.64369 1.31418 1.39299C1.61185 1.18323 1.96067 1.05045 2.28905 0.881745C9.9794 0.893119 17.6697 0.904494 25.3601 0.915868C25.8572 1.05503 26.3183 1.27104 26.5996 1.72775C26.7479 1.96894 26.8347 2.24592 26.9471 2.50756C26.9357 10.1979 26.9243 17.8883 26.913 25.5786C26.7687 26.0757 26.5578 26.5368 26.1011 26.8181C25.8599 26.9613 25.5829 27.0532 25.3213 27.1656ZM13.8369 6.44614C13.8368 6.4769 13.8368 6.50767 13.8367 6.53843C12.7498 6.53682 11.6681 6.51471 10.5811 6.53874C9.70954 6.55796 8.86843 6.76179 8.12942 7.25801C6.89774 8.08675 6.36785 9.31129 6.33498 10.7365C6.28561 12.9205 6.30288 15.1097 6.32016 17.2938C6.32915 18.15 6.54839 18.9707 7.03438 19.6943C7.86311 20.926 9.08766 21.4558 10.5129 21.4887C12.6969 21.5381 14.8861 21.5362 17.0702 21.4984C18.2802 21.4797 19.3677 21.0814 20.2047 20.1495C20.9442 19.3252 21.2482 18.331 21.2703 17.2544C21.314 15.4601 21.3217 13.6657 21.3244 11.8712C21.3252 11.3432 21.2849 10.8099 21.2345 10.2869C21.0324 8.2512 19.5785 6.7725 17.5383 6.6003C16.3182 6.50108 15.0775 6.49412 13.8369 6.44614Z" fill="#00E0C7"/>
<path d="M20.0089 14.0279C19.9764 15.1712 19.9696 16.3196 19.9013 17.4577C19.8066 19.0315 18.8053 20.081 17.2313 20.1197C14.9549 20.1779 12.6734 20.1745 10.392 20.1096C8.78226 20.0662 7.75328 19.0342 7.70953 17.414C7.65139 15.1273 7.67529 12.8356 7.71969 10.5491C7.74166 9.5596 8.19404 8.73997 9.11247 8.25427C9.63069 7.98331 10.1999 7.88161 10.7741 7.88246C12.9274 7.88565 15.0808 7.8632 17.2288 7.93302C18.8232 7.98665 19.7907 9.01859 19.9114 10.6132C19.9265 10.7824 19.9468 10.9517 19.9465 11.126C19.9502 12.0898 19.9436 13.0588 19.9422 14.0227C19.9679 14.0227 19.9884 14.0279 20.0089 14.0279ZM17.671 14.0193C17.669 11.8814 15.9489 10.1613 13.811 10.1582C11.668 10.1499 9.93253 11.8853 9.93449 14.0284C9.93646 16.1663 11.6566 17.8864 13.7945 17.8947C15.9375 17.8978 17.6781 16.1624 17.671 14.0193ZM18.7331 9.99627C18.7287 9.50408 18.3294 9.10871 17.8372 9.10286C17.3296 9.10211 16.9292 9.50654 16.9335 10.0141C16.9379 10.5217 17.3424 10.9119 17.8551 10.9024C18.3472 10.898 18.7375 10.4936 18.7331 9.99627Z" fill="#00E0C7"/>
<path d="M13.8093 11.5113C15.1938 11.5133 16.3151 12.638 16.3182 14.0174C16.3213 15.4122 15.1864 16.5386 13.7916 16.5314C12.4122 16.5243 11.2909 15.3945 11.2929 14.01C11.3001 12.6357 12.4248 11.5092 13.8093 11.5113Z" fill="#00E0C7"/>
</g>
<defs>
<clipPath id="clip0_21_255">
<rect width="26.2498" height="26.2498" fill="white" transform="translate(0.699707 0.879395) rotate(0.0847422)"/>
</clipPath>
</defs>
</svg>
