<svg width="27" height="28" viewBox="0 0 27 28" fill="none" xmlns="http://www.w3.org/2000/svg">
<g clip-path="url(#clip0_21_251)">
<path d="M24.8218 27.088C17.1314 27.0766 9.44106 27.0652 1.75071 27.0538C1.25361 26.9095 0.792503 26.6987 0.511198 26.242C0.368002 26.0008 0.276127 25.7238 0.163722 25.4621C0.175096 17.7718 0.18647 10.0814 0.197845 2.3911C0.321497 1.98113 0.460537 1.56605 0.814665 1.31536C1.11234 1.10559 1.46116 0.972811 1.78953 0.804108C9.47988 0.815483 17.1702 0.826857 24.8606 0.838231C25.3577 0.977393 25.8188 1.19341 26.1001 1.65012C26.2484 1.8913 26.3352 2.16828 26.4476 2.42992C26.4362 10.1203 26.4248 17.8106 26.4135 25.501C26.2692 25.9981 26.0583 26.4592 25.6016 26.7405C25.3604 26.8837 25.0834 26.9756 24.8218 27.088ZM14.4583 11.0767C13.3663 11.0751 12.3204 11.0735 11.2848 11.072C11.28 14.2865 11.2753 17.4703 11.2706 20.6388C12.337 20.6403 13.3829 20.6419 14.4442 20.6435C14.4454 19.8129 14.4466 19.0029 14.4478 18.1928C14.4545 17.1162 14.451 16.0395 14.4782 14.9629C14.4945 14.3631 14.8181 13.9124 15.3108 13.5952C16.2396 13.0019 17.3874 13.424 17.6781 14.4857C17.775 14.8396 17.8103 15.2242 17.8098 15.5984C17.8228 17.1981 17.8102 18.7925 17.8078 20.3921C17.8077 20.4793 17.8075 20.5715 17.8074 20.6484C18.8943 20.65 19.9402 20.6516 20.9912 20.6531C20.9965 20.5814 21.0017 20.5301 21.0017 20.4788C21.0044 18.6844 21.0275 16.8901 20.9943 15.0956C20.985 14.4906 20.8987 13.865 20.7304 13.2803C20.3478 11.9518 19.4519 11.1148 18.0731 10.8872C16.6533 10.6493 15.4274 10.9909 14.5643 12.2406C14.5437 12.2714 14.5129 12.2867 14.4462 12.3481C14.4571 11.8918 14.4577 11.4868 14.4583 11.0767ZM9.47106 20.6464C9.47629 20.5797 9.48662 20.5285 9.48669 20.4772C9.49124 17.4011 9.49579 14.3249 9.50547 11.2488C9.50576 11.054 9.42889 11.0282 9.2597 11.028C8.35223 11.0317 7.44991 11.0253 6.54244 11.0291C6.46554 11.029 6.39374 11.0391 6.31171 11.0441C6.30696 14.2536 6.30224 17.4425 6.29751 20.6417C7.35878 20.6432 8.39954 20.6448 9.47106 20.6464ZM7.93355 6.40153C7.09274 6.40029 6.42047 6.83508 6.19385 7.532C5.87451 8.53128 6.47802 9.52167 7.51854 9.68727C8.48217 9.8425 9.31847 9.42846 9.6016 8.64958C10.0288 7.51717 9.20501 6.40854 7.93355 6.40153Z" fill="#00E0C7"/>
</g>
<defs>
<clipPath id="clip0_21_251">
<rect width="26.2498" height="26.2498" fill="white" transform="translate(0.200195 0.801758) rotate(0.0847422)"/>
</clipPath>
</defs>
</svg>
