<svg width="27" height="27" viewBox="0 0 27 27" fill="none" xmlns="http://www.w3.org/2000/svg">
<g clip-path="url(#clip0_21_261)">
<path d="M0.662013 24.6948C0.673387 17.0045 0.684761 9.31411 0.696136 1.62376C0.819788 1.21379 0.958828 0.798719 1.31296 0.548024C1.61063 0.338261 1.95945 0.205477 2.28783 0.0367745C9.97818 0.0481488 17.6685 0.0595231 25.3589 0.0708973C25.856 0.210059 26.3171 0.426071 26.5984 0.882783C26.7467 1.12397 26.8335 1.40095 26.9459 1.66259C26.9345 9.35294 26.9231 17.0433 26.9117 24.7336C26.7675 25.2307 26.5566 25.6918 26.0999 25.9732C25.8587 26.1215 25.5817 26.2082 25.3201 26.3206C17.6297 26.3093 9.93935 26.2979 2.249 26.2865C1.7519 26.1422 1.29079 25.9313 1.00949 25.4746C0.866293 25.2334 0.774418 24.9565 0.662013 24.6948ZM11.0508 16.6558C9.72657 17.6433 8.29559 18.0309 6.64492 17.8951C6.78322 17.9825 6.85492 18.0339 6.93176 18.0801C8.88345 19.2007 10.9748 19.496 13.1647 19.0378C17.3393 18.1622 19.7391 14.3718 19.7957 10.8189C19.8013 10.4447 19.8837 10.1936 20.1968 9.96846C20.6177 9.66146 20.9567 9.25181 21.2701 8.77547C20.9675 8.87244 20.7212 8.96436 20.4699 9.03576C20.2186 9.10204 19.9571 9.1478 19.7006 9.20381C20.2396 8.76369 20.6505 8.26187 20.8616 7.64182C20.323 7.83585 19.7844 8.02475 19.2509 8.21878C19.0714 8.28516 18.9484 8.23884 18.7999 8.11045C17.9039 7.31958 16.8634 7.10784 15.7452 7.51633C14.6166 7.92995 13.9591 8.77491 13.8036 9.96925C13.7569 10.3076 13.7974 10.6563 13.7969 11.0151C11.3106 10.832 9.26653 9.77797 7.64412 7.86836C7.24318 8.57016 7.14984 9.28779 7.30765 10.0417C7.47061 10.7904 7.89528 11.3755 8.49955 11.8481C8.48413 11.8737 8.46872 11.8942 8.45331 11.9198C8.04333 11.8013 7.62822 11.6828 7.20799 11.5642C7.22236 12.2512 7.42652 12.8668 7.85638 13.4109C8.28111 13.955 8.84456 14.2993 9.51078 14.4848C9.50562 14.5105 9.50046 14.531 9.50042 14.5566C9.10052 14.556 8.6955 14.5554 8.25459 14.5548C8.75513 15.8321 9.66159 16.5153 11.0508 16.6558Z" fill="#00E0C7"/>
</g>
<defs>
<clipPath id="clip0_21_261">
<rect width="26.2498" height="26.2498" fill="white" transform="translate(0.698486 0.0344238) rotate(0.0847422)"/>
</clipPath>
</defs>
</svg>
