<svg width="27" height="28" viewBox="0 0 27 28" fill="none" xmlns="http://www.w3.org/2000/svg">
<g clip-path="url(#clip0_21_269)">
<path d="M0.161769 25.6172C0.173143 17.9268 0.184517 10.2365 0.195892 2.54613C0.319544 2.13616 0.458584 1.72108 0.812712 1.47039C1.11038 1.26062 1.45921 1.12784 1.78758 0.959138C9.47793 0.970512 17.1683 0.981886 24.8586 0.993261C25.3557 1.13242 25.8168 1.34843 26.0981 1.80515C26.2465 2.04633 26.3332 2.32331 26.4456 2.58495C26.4342 10.2753 26.4229 17.9657 26.4115 25.656C26.2672 26.1531 26.0563 26.6142 25.5996 26.8955C25.3584 27.0438 25.0814 27.1306 24.8198 27.243C17.1295 27.2316 9.43911 27.2202 1.74876 27.2089C1.25166 27.0646 0.79055 26.8537 0.509245 26.397C0.366049 26.1558 0.274174 25.8788 0.161769 25.6172ZM12.979 8.29692C12.979 8.31743 12.979 8.33794 12.9738 8.35844C12.8815 8.3583 12.7841 8.35303 12.6918 8.35802C10.9024 8.4374 9.10792 8.49627 7.31845 8.61667C6.28271 8.68691 5.58451 9.32162 5.40868 10.3467C5.25356 11.2335 5.17531 12.1408 5.12784 13.0431C5.04853 14.6682 5.07689 16.2883 5.40265 17.8884C5.58587 18.8013 6.17461 19.3764 7.09725 19.5162C7.96351 19.6456 8.84523 19.7136 9.72187 19.7559C12.7978 19.8937 15.8688 19.8983 18.9402 19.6413C20.417 19.5153 21.0793 18.896 21.2814 17.4454C21.4834 15.9947 21.5523 14.5337 21.4724 13.0724C21.4225 12.1392 21.3367 11.1957 21.1792 10.2778C21.0317 9.42137 20.4481 8.89243 19.5922 8.69635C19.3359 8.63444 19.0694 8.59303 18.8079 8.58239C16.8701 8.47699 14.9271 8.38696 12.979 8.29692Z" fill="#00E0C7"/>
<path d="M11.6931 11.6479C13.1174 12.4705 14.5059 13.2776 15.9405 14.1054C14.5035 14.9288 13.1075 15.7318 11.6859 16.5502C11.6883 14.9093 11.6907 13.2991 11.6931 11.6479Z" fill="#00E0C7"/>
</g>
<defs>
<clipPath id="clip0_21_269">
<rect width="26.2498" height="26.2498" fill="white" transform="translate(0.198242 0.956787) rotate(0.0847422)"/>
</clipPath>
</defs>
</svg>
