<svg width="27" height="27" viewBox="0 0 27 27" fill="none" xmlns="http://www.w3.org/2000/svg">
<g clip-path="url(#clip0_3_6273)">
<path d="M0.215163 22.4474C0.219177 19.7332 0.223184 17.0242 0.227198 14.31C0.516613 13.8589 0.758188 13.8068 1.21448 14.1119C1.61833 14.3803 2.06443 14.4807 2.54743 14.4814C5.29841 14.4802 8.05463 14.4843 10.8056 14.4884C10.9053 14.4885 11.0051 14.4887 11.1258 14.4888C11.1309 14.5991 11.1361 14.6831 11.1359 14.7671C11.1353 15.2029 11.1294 15.6386 11.1393 16.0691C11.1439 16.4629 11.3589 16.6732 11.7421 16.6737C12.7973 16.6805 13.8578 16.6821 14.9131 16.6784C15.2753 16.679 15.4856 16.4745 15.5072 16.1123C15.518 15.8918 15.5131 15.6713 15.5134 15.4456C15.5139 15.1358 15.5143 14.8208 15.5148 14.4901C15.6566 14.4903 15.7563 14.4904 15.8561 14.4906C18.6018 14.4947 21.3475 14.4935 24.0932 14.508C24.613 14.5088 25.0909 14.3993 25.5113 14.0901C25.7058 13.9487 25.9106 13.9017 26.1309 14.0175C26.3617 14.1386 26.4244 14.3487 26.4241 14.5955C26.4151 17.0997 26.4166 19.6092 26.4077 22.1134C26.4073 22.3706 26.3597 22.6436 26.2753 22.8902C25.9589 23.8084 25.1549 24.3323 24.0892 24.3307C16.902 24.32 9.71483 24.3094 2.52766 24.2988C2.44891 24.2987 2.37541 24.2986 2.29667 24.2932C1.37272 24.2603 0.580888 23.6449 0.314453 22.7573C0.277851 22.6575 0.246507 22.5524 0.215163 22.4474Z" fill="#006270"/>
<path d="M0.230962 11.5482C0.232903 10.2357 0.234845 8.92319 0.236786 7.6107C0.247309 7.59496 0.263074 7.58449 0.268348 7.56875C0.600934 6.325 1.34202 5.75385 2.63351 5.75576C4.27149 5.75818 5.90948 5.7606 7.54221 5.76302C7.64196 5.76317 7.74171 5.76331 7.87821 5.76352C7.87876 5.39077 7.87402 5.04426 7.87978 4.69778C7.90785 3.46933 8.80176 2.50991 9.98826 2.50116C12.23 2.48348 14.4717 2.49204 16.7134 2.51111C17.6689 2.51777 18.4922 3.19098 18.7113 4.12055C18.8 4.49868 18.7784 4.89764 18.7988 5.28617C18.8091 5.44369 18.7984 5.60117 18.7981 5.77442C18.9451 5.77463 19.0449 5.77478 19.1446 5.77493C20.8141 5.7774 22.4888 5.77463 24.1583 5.78234C25.5128 5.7896 26.4301 6.71495 26.4281 8.07468C26.4266 9.08792 26.4251 10.1064 26.4236 11.1197C26.4216 12.5004 25.491 13.423 24.105 13.421C21.333 13.4169 18.5611 13.4128 15.7943 13.4087C15.7051 13.4085 15.6158 13.4084 15.5108 13.4082C15.5111 13.2245 15.5166 13.0828 15.5115 12.9357C15.5016 12.5262 15.3024 12.3212 14.893 12.3206C13.843 12.3138 12.793 12.3122 11.7482 12.3159C11.3545 12.3154 11.1547 12.5198 11.1384 12.9135C11.1329 13.071 11.1379 13.2285 11.1377 13.3755C11.0799 13.3912 11.0641 13.3964 11.0484 13.3964C8.13467 13.3921 5.21569 13.3983 2.30199 13.3782C1.39901 13.3716 0.601977 12.7194 0.330261 11.8528C0.298909 11.753 0.262307 11.6532 0.230962 11.5482ZM10.0727 5.74576C12.2672 5.74901 14.4354 5.75221 16.5984 5.75541C16.5989 5.38792 16.5995 5.04142 16.6 4.69492C14.416 4.69169 12.2478 4.68849 10.0743 4.68527C10.0737 5.04752 10.0732 5.38876 10.0727 5.74576Z" fill="#006270"/>
</g>
<defs>
<clipPath id="clip0_3_6273">
<rect width="26.2498" height="26.2498" fill="white" transform="translate(0.247803 0.239746) rotate(0.0847422)"/>
</clipPath>
</defs>
</svg>
