<svg width="28" height="27" viewBox="0 0 28 27" fill="none" xmlns="http://www.w3.org/2000/svg">
<g clip-path="url(#clip0_3_6155)">
<path d="M9.60469 26.7478C9.58371 26.7321 9.56799 26.711 9.54175 26.7058C8.69694 26.4105 8.38303 25.6803 8.75697 24.8724C9.37318 23.545 9.98938 22.2177 10.6108 20.8904C10.6898 20.7225 10.7531 20.5388 10.8478 20.3815C11.1478 19.9094 11.1748 19.4002 11.1388 18.8647C11.0619 17.6571 11.0112 16.4495 10.95 15.2367C10.9448 15.1684 10.9554 15.1002 10.9503 15.0319C10.9349 14.7537 11.0192 14.5543 11.2715 14.3709C11.8181 13.978 12.1234 13.4009 12.1192 12.7289C12.1149 12.0832 12.3099 11.5742 12.7987 11.1444C13.193 10.7985 13.5191 10.3685 13.8872 9.99106C14.5392 9.32528 14.7818 8.5434 14.4839 7.65047C14.1807 6.75227 13.5042 6.28928 12.5594 6.16188C12.549 6.06212 12.5334 5.95184 12.5179 5.80482C13.0061 5.83179 13.4786 5.85874 13.951 5.89094C14.5704 5.93386 15.1898 5.98727 15.8145 6.02495C16.7699 6.08936 17.4094 6.80955 17.3187 7.75441C17.2921 8.00637 17.3548 8.19021 17.5226 8.36895C17.8737 8.75272 18.1986 9.15745 18.5498 9.54121C18.6442 9.64635 18.7858 9.73581 18.9222 9.77276C19.8773 10.0262 20.8377 10.2586 21.7929 10.512C22.3124 10.6493 22.6372 11.096 22.5998 11.5842C22.5622 12.1091 22.1889 12.5076 21.6586 12.5645C21.5115 12.5801 21.3541 12.5536 21.2071 12.5166C20.1261 12.2473 19.0397 11.9937 17.9691 11.6876C17.6595 11.5979 17.3921 11.3665 17.0984 11.1981C17.0877 11.345 17.0663 11.555 17.0503 11.7702C16.9644 13.0196 16.8786 14.269 16.7927 15.5183C16.7873 15.6338 16.8029 15.7546 16.8395 15.8649C17.0956 16.6423 17.3359 17.4249 17.6235 18.1865C17.8589 18.8116 17.9472 19.4522 18.0039 20.1086C18.1431 21.8255 18.2929 23.5372 18.4426 25.2542C18.5097 26.005 18.2361 26.4246 17.4324 26.7542C17.2801 26.7539 17.1279 26.7537 16.9704 26.7535C16.4089 26.5742 16.0104 26.2323 15.9536 25.6127C15.8089 24.0165 15.6853 22.4204 15.5406 20.8294C15.4942 20.3044 15.4687 19.7688 15.3225 19.2699C14.9724 18.0986 14.5594 16.943 14.1674 15.7822C14.0367 15.3987 13.916 15.3303 13.4854 15.4347C13.5516 16.826 13.6125 18.2226 13.6944 19.6192C13.7149 19.9762 13.6619 20.3069 13.5092 20.6322C12.7192 22.311 11.9292 23.9898 11.1655 25.6792C10.939 26.1776 10.6602 26.5762 10.1192 26.7486C9.94593 26.7483 9.77794 26.7481 9.60469 26.7478Z" fill="#006270"/>
<path d="M6.72084 13.5928C6.21703 13.4713 5.82375 13.1557 5.64603 12.6252C5.47356 12.1 5.5216 11.5645 5.75335 11.0556C5.91135 10.7199 6.17945 10.4788 6.52614 10.348C6.68898 10.2853 6.74162 10.1961 6.75236 10.0334C6.82228 8.90473 6.89745 7.77085 6.97787 6.64222C6.9993 6.35351 7.00498 6.05952 7.06839 5.78137C7.24803 5.00989 7.968 4.52271 8.75536 4.61312C9.338 4.68223 9.92591 4.74085 10.5086 4.79421C11.3485 4.8742 11.946 5.52608 11.9395 6.36607C11.9387 6.93306 11.9387 6.93306 11.3924 7.11075C10.6991 7.34072 10.0057 7.5812 9.31238 7.80592C8.98148 7.91043 8.75017 8.12008 8.61846 8.43489C8.03892 9.81477 7.44889 11.1894 6.89034 12.5798C6.77438 12.8894 6.77911 13.2411 6.72084 13.5928Z" fill="#006270"/>
<path d="M12.2745 10.7497C12.3013 10.3455 12.3124 9.94131 12.3655 9.54239C12.3814 9.44266 12.5285 9.35888 12.6231 9.27502C12.7125 9.19116 12.8124 9.11255 12.8756 8.9919C12.5393 9.1699 12.2187 9.37942 11.8668 9.5154C11.1261 9.80305 10.7001 10.3169 10.4418 11.0673C10.1465 11.9436 9.74623 12.783 9.37748 13.6329C9.16677 14.1156 8.66242 14.3564 8.17961 14.2297C7.68105 14.1029 7.34046 13.6562 7.37795 13.1575C7.38867 13.0105 7.43614 12.8583 7.4941 12.7167C8.01043 11.4784 8.53725 10.2402 9.05359 8.99674C9.1853 8.68194 9.39039 8.4565 9.69511 8.3047C10.4359 7.92255 11.182 7.5404 11.9018 7.12672C12.5691 6.73921 13.1359 6.8923 13.4505 7.16051C13.9224 7.56546 14.1103 8.29023 13.8995 8.88841C13.8573 8.9986 13.8046 9.10877 13.7467 9.20844C13.6836 9.30809 13.6047 9.40247 13.5258 9.48636C13.1314 9.91627 12.7318 10.3409 12.3322 10.7708C12.3112 10.7603 12.2955 10.755 12.2745 10.7497Z" fill="#006270"/>
<path d="M12.7483 2.86045C12.7502 1.58448 13.7651 0.562046 15.0306 0.563917C16.3013 0.565797 17.3238 1.58074 17.3271 2.85147C17.3305 4.1222 16.3156 5.14464 15.0448 5.15326C13.7846 5.15139 12.7517 4.12068 12.7483 2.86045Z" fill="#006270"/>
<path d="M11.6927 10.1242C11.6658 10.56 11.6389 11.001 11.612 11.4368C11.5851 11.8621 11.5477 12.2873 11.5208 12.7126C11.4617 13.6262 10.6993 14.3077 9.78047 14.2486C9.93326 13.9023 10.0913 13.5559 10.2336 13.2096C10.6288 12.2755 11.0135 11.3414 11.4139 10.4126C11.4614 10.2971 11.5508 10.1975 11.6192 10.0926C11.6402 10.1031 11.6664 10.1136 11.6927 10.1242Z" fill="#006270"/>
</g>
<defs>
<clipPath id="clip0_3_6155">
<rect width="26.2498" height="26.2498" fill="white" transform="translate(0.996582 0.485107) rotate(0.0847422)"/>
</clipPath>
</defs>
</svg>
