<svg width="16" height="16" viewBox="0 0 16 16" fill="none" xmlns="http://www.w3.org/2000/svg">
<g clip-path="url(#clip0_10_10500)">
<path d="M7.86832 15.6737C7.73402 15.5925 7.69653 15.4676 7.69653 15.3145C7.69966 14.5618 7.69966 13.8059 7.69966 13.0531C7.69966 13.0094 7.69966 12.9657 7.69966 12.9032C7.86833 12.9126 8.0245 12.9188 8.19004 12.9282C8.19317 12.975 8.19941 13.0125 8.19941 13.05C8.19941 13.8121 8.19629 14.5774 8.20254 15.3395C8.20254 15.4926 8.15881 15.605 8.01825 15.6706C7.96515 15.6737 7.9183 15.6737 7.86832 15.6737Z" fill="#00E0C7"/>
<path d="M7.69055 3.99829C7.69055 6.79381 7.69055 9.5862 7.69055 12.3786C5.96327 12.2474 4.1454 10.7294 3.97673 8.53046C3.78933 6.05042 5.67903 4.19195 7.69055 3.99829Z" fill="#00E0C7"/>
<path d="M10.9108 3.98889C9.26789 5.17269 9.08048 7.11549 9.61147 8.3274C9.97379 9.15513 10.561 9.77045 11.3856 10.1421C12.204 10.5107 13.0473 10.542 13.9281 10.2702C13.6501 10.7981 13.2909 11.2229 12.8411 11.5696C12.079 12.1568 11.2107 12.4473 10.2455 12.4223C9.53963 12.4067 8.8837 12.2161 8.28087 11.8507C8.23714 11.8226 8.20278 11.7445 8.20278 11.6883C8.19653 10.9418 8.19966 10.1984 8.19966 9.45186C8.19966 7.88387 8.20278 6.31588 8.19653 4.7479C8.19653 4.61671 8.23089 4.54175 8.34958 4.47303C9.13358 4.03574 9.97067 3.88894 10.8577 3.96703C10.8702 3.97327 10.8858 3.97952 10.9108 3.98889Z" fill="#00E0C7"/>
<path d="M12.7381 6.26283C12.8912 6.23785 13.0442 6.21286 13.2004 6.19412C13.341 6.1785 13.4315 6.10666 13.4846 5.9786C13.544 5.84116 13.6096 5.70685 13.6877 5.54443C13.7657 5.70998 13.8345 5.84429 13.8938 5.98484C13.9469 6.10666 14.0344 6.1785 14.1687 6.19412C14.3249 6.21286 14.481 6.24097 14.6403 6.26596C14.6497 6.28157 14.6591 6.29407 14.6716 6.30969C14.5497 6.41901 14.4279 6.52833 14.3061 6.64077C14.2093 6.73136 14.1749 6.83755 14.203 6.97186C14.2343 7.12804 14.253 7.28733 14.2811 7.47474C14.1281 7.39041 13.9969 7.32482 13.8688 7.24673C13.747 7.17489 13.6346 7.17177 13.5127 7.24361C13.3847 7.31857 13.2504 7.38729 13.0973 7.47162C13.1254 7.29046 13.1442 7.13116 13.1785 6.97811C13.2098 6.84068 13.1723 6.72823 13.0723 6.63453C12.9536 6.52521 12.8318 6.42213 12.7131 6.31593C12.7163 6.29719 12.7256 6.28157 12.7381 6.26283Z" fill="#00E0C7"/>
<path d="M8.18703 3.45171C8.0246 3.46108 7.87155 3.47045 7.70913 3.4767C7.706 3.41735 7.70288 3.3705 7.70288 3.32365C7.70288 2.57089 7.70288 1.81501 7.70288 1.06225C7.70288 1.03414 7.70288 1.0029 7.70288 0.974792C7.7185 0.812371 7.82157 0.706173 7.95901 0.71242C8.09957 0.715543 8.19952 0.821742 8.19952 0.987286C8.20264 1.79002 8.19952 2.59275 8.19952 3.39237C8.1964 3.40798 8.19015 3.4236 8.18703 3.45171Z" fill="#00E0C7"/>
<path d="M4.48863 12.1726C4.42929 12.2663 4.40118 12.3413 4.34808 12.3944C3.87331 12.8754 3.39229 13.3533 2.9144 13.8312C2.79258 13.953 2.64266 13.9623 2.53958 13.8655C2.42714 13.7593 2.43651 13.6094 2.56457 13.4813C3.04246 13.0034 3.52036 12.5255 4.00137 12.0476C4.08571 11.9633 4.18878 11.9008 4.30123 11.9696C4.37307 12.0102 4.41992 12.0976 4.48863 12.1726Z" fill="#00E0C7"/>
<path d="M1.71531 8.44293C1.41858 8.44293 1.12185 8.44293 0.825121 8.44293C0.765775 8.44293 0.706429 8.43981 0.650206 8.42731C0.531514 8.39608 0.472168 8.31174 0.472168 8.19305C0.472168 8.07123 0.534638 7.99002 0.65333 7.96191C0.709552 7.94941 0.768899 7.94629 0.828245 7.94629C1.41858 7.94629 2.0058 7.94629 2.59613 7.94629C2.62425 7.94629 2.65548 7.94629 2.68359 7.94629C2.85226 7.95878 2.95534 8.04937 2.95846 8.18992C2.96158 8.33673 2.85538 8.43981 2.68047 8.44293C2.35875 8.44605 2.03703 8.44293 1.71531 8.44293Z" fill="#00E0C7"/>
<path d="M2.69601 2.42749C2.78971 2.48371 2.8678 2.51182 2.92402 2.56805C3.40191 3.03969 3.87668 3.51446 4.34833 3.98923C4.47639 4.11729 4.48576 4.27034 4.37644 4.37654C4.26712 4.48274 4.12969 4.47649 4.00162 4.34843C3.52373 3.87054 3.04584 3.39265 2.56795 2.91475C2.48361 2.83042 2.42739 2.72422 2.49611 2.6149C2.53671 2.54306 2.62104 2.49621 2.69601 2.42749Z" fill="#00E0C7"/>
</g>
<defs>
<clipPath id="clip0_10_10500">
<rect width="14.9896" height="14.9896" fill="white" transform="translate(0.0944824 0.684326)"/>
</clipPath>
</defs>
</svg>
