<svg width="16" height="16" viewBox="0 0 16 16" fill="none" xmlns="http://www.w3.org/2000/svg">
<g clip-path="url(#clip0_10_10480)">
<path d="M7.78945 1.14539C5.09606 1.14539 2.90479 3.33666 2.90479 6.03005C2.90479 9.41535 7.79425 15.1981 7.79425 15.1981C7.79425 15.1981 12.6741 9.24887 12.6741 6.03005C12.6741 3.33666 10.4829 1.14539 7.78945 1.14539ZM9.26325 7.46028C8.85687 7.86658 8.3232 8.06977 7.78945 8.06977C7.25578 8.06977 6.72194 7.86658 6.31573 7.46028C5.50305 6.64769 5.50305 5.32544 6.31573 4.51276C6.70925 4.11907 7.23271 3.90224 7.78945 3.90224C8.34619 3.90224 8.86956 4.11915 9.26325 4.51276C10.0759 5.32544 10.0759 6.64769 9.26325 7.46028Z" fill="#00E0C7"/>
</g>
<defs>
<clipPath id="clip0_10_10480">
<rect width="14.9896" height="14.9896" fill="white" transform="translate(0.421875 0.684326)"/>
</clipPath>
</defs>
</svg>
