<svg width="261" height="80" viewBox="0 0 261 80" fill="none" xmlns="http://www.w3.org/2000/svg">
<g clip-path="url(#clip0_3230_4)">
<path d="M40.3101 7.53667C22.9883 5.32112 7.04543 16.1863 2.40142 32.4214C11.4458 41.377 39.102 43.4254 67.393 27.2861C62.4844 16.8766 52.5872 9.13644 40.3101 7.53667Z" fill="url(#paint0_radial_3230_4)"/>
<path d="M69.8747 34.7719C51.4958 48.6143 25.9431 62.9327 6.06908 60.105C8.43402 64.0626 11.59 67.4738 15.3549 70.2168C37.6689 67.3299 56.3551 51.2372 70.3569 37.5709C70.2367 36.6582 70.1164 35.7456 69.8747 34.7719Z" fill="url(#paint1_radial_3230_4)"/>
<path d="M70.5376 38.7873C62.1929 49.9679 43.1952 71.17 24.4664 74.9746C26.6537 75.7078 28.9628 76.3196 31.394 76.6273C50.4782 79.0888 67.9447 65.6101 70.4045 46.5735C70.7123 43.9582 70.7769 41.3426 70.5376 38.7873Z" fill="url(#paint2_radial_3230_4)"/>
<path d="M83.5751 19.5234C78.6454 23.4093 73.5342 26.7475 68.3627 29.7206C44.2697 43.4328 19.0978 46.863 0.989874 41.9089C0.984025 45.8629 1.58625 49.6962 2.85742 53.3479C22.0606 57.6345 46.0268 47.3895 69.089 31.8508C74.0179 28.5123 78.8863 24.9305 83.6942 21.2269C85.9469 18.8578 85.7047 18.1883 83.5751 19.5234Z" fill="url(#paint3_radial_3230_4)"/>
<path d="M40.4719 21.5886C38.6487 21.2209 40.4746 19.7636 39.624 19.3974C38.7735 19.0311 38.8929 20.4913 37.3117 20.9756C35.7305 21.4599 36.7664 19.7581 36.0388 18.4796C35.2504 17.201 32.9404 17.2584 32.7572 17.8056C32.574 18.3528 32.209 18.5348 32.2075 19.5689C32.2059 20.603 33.6643 21.031 31.7184 21.4539C29.8333 21.877 31.3524 22.305 31.0474 22.9737C30.7425 23.6424 30.3172 23.4593 30.2576 22.6684C30.2588 21.8776 30.5037 20.7222 28.0722 20.6577C25.6407 20.5933 25.2795 18.2204 25.9496 17.2481C26.6805 16.2758 27.5914 16.8855 28.3213 16.6432C29.0511 16.401 28.6876 15.5488 29.7209 15.672C30.7541 15.7952 31.9707 15.2495 31.6683 14.2149C31.366 13.1195 30.27 14.2737 29.1754 14.5762C28.0807 14.8788 29.3582 14.2724 28.0216 13.7229C26.685 13.2343 26.8653 14.6337 26.2569 14.9978C25.6484 15.3618 25.4668 14.8749 24.312 14.7515C23.1571 14.6282 21.7586 14.8694 20.7853 15.3546C19.812 15.779 17.8071 14.9852 16.4096 14.5574C14.0972 16.1964 11.9667 18.1398 10.1398 20.3271C10.3214 20.814 10.503 21.3617 10.6238 21.8486C11.0466 23.735 10.9871 22.8224 11.4713 24.2831C11.9554 25.7437 11.1013 27.8107 9.94344 29.7556C8.78557 31.7005 10.0638 30.6075 11.0343 32.008C12.0049 33.4086 11.0332 32.7988 11.1537 33.529C11.2137 34.0157 11.6378 34.9896 12.1223 36.207C12.3046 36.2681 12.5477 36.3293 12.73 36.3904C12.1853 34.7471 12.4905 33.8959 12.8539 34.8089C13.0354 35.3567 13.3993 35.9047 13.8238 36.6353C15.5253 37.0637 17.4701 37.3707 19.5973 37.6171C19.9021 37.0701 20.3283 36.6449 20.8754 36.6457C22.4558 36.7089 21.6654 36.7686 23.2466 36.3451C24.8277 35.9825 24.0978 36.2247 24.7662 36.4082C25.1916 36.5305 25.6771 37.0787 26.4663 37.8098C27.1957 37.8109 27.9253 37.7511 28.7157 37.6915C28.5344 36.9612 28.2925 36.1092 28.2325 35.5617C28.1132 34.0407 29.9367 34.1651 30.7896 32.8889C31.6426 31.6127 32.7987 30.8236 34.0767 29.8522C35.3547 28.8807 34.9901 28.8194 36.3883 28.7606C37.7866 28.7018 36.6916 29.2477 37.725 29.2492C38.7584 29.2508 39.3678 28.2175 37.7276 27.4851C36.0873 26.8136 38.3975 26.6345 37.0606 26.3284C35.7237 26.0222 36.15 25.5362 36.15 25.5362C36.15 25.5362 39.6765 25.0548 41.8646 25.2405C44.0528 25.4262 43.4487 22.8096 43.3284 21.9578C43.0863 21.2274 42.295 21.9562 40.4719 21.5886ZM30.9405 13.0581C31.4875 13.1197 34.3439 13.6106 35.3155 14.342C36.287 15.0734 36.0428 15.803 34.6445 15.8618C33.7326 15.9213 32.6383 15.9805 34.0967 16.3476C35.555 16.7756 36.1635 16.4115 36.5269 17.2637C36.8904 18.1159 38.0445 18.7259 38.1057 18.4218C38.1671 18.0569 36.6484 17.3247 37.9855 17.5092C39.3226 17.6936 39.6872 17.8159 39.2019 17.0852C38.7167 16.3545 36.9549 15.6219 38.535 15.8675C40.1153 16.0524 42.9693 18.1857 40.4801 15.9921C37.991 13.7985 37.8683 14.5283 37.991 13.7985C38.0528 13.1294 39.4507 13.314 37.3845 12.8851C35.379 12.5172 35.0742 13.0642 34.7713 12.3338C34.5293 11.6034 34.5919 10.3261 33.496 11.4802C32.4001 12.6344 33.1888 13.6697 32.4001 12.6344C31.6114 11.5991 29.605 11.8395 29.605 11.8395C29.7249 12.9346 30.3935 12.9964 30.9405 13.0581ZM55.0114 14.2495C51.1248 11.5671 46.5684 9.67463 41.585 8.81562C41.6449 9.36319 41.7656 9.97168 41.8862 10.641C41.9464 11.0669 41.2164 11.37 42.3097 11.9799C43.4031 12.5899 44.9835 12.653 44.1319 13.0168C43.2803 13.3805 42.2471 13.2573 42.7937 13.5623C43.3404 13.8672 44.6169 13.9299 44.1304 14.0509C43.6438 14.2327 42.7936 13.6231 43.2174 14.8403C43.6411 16.0576 43.5793 16.7266 45.0967 18.3105C46.6141 19.8944 47.65 18.1926 47.8918 19.1054C48.1336 20.0791 47.2812 20.9903 48.6176 21.6006C49.8933 22.2108 50.1992 20.873 50.1405 19.4738C50.0818 18.0745 48.927 17.9512 50.3261 17.2841C51.6644 16.6778 51.8458 17.3472 52.6374 16.4359C53.429 15.5246 53.6117 15.2815 53.5515 14.9165C53.4299 14.9163 54.1598 14.6132 55.0114 14.2495Z" fill="url(#paint4_radial_3230_4)"/>
<path d="M99.8232 7.38107C98.3037 7.25716 95.9313 8.34862 94.7756 8.83356C93.6806 9.31859 90.516 11.7472 87.7785 13.0814C84.9802 14.4156 82.8526 14.4124 80.7858 14.3485C78.7191 14.2846 75.0117 13.7317 71.8483 15.3086C69.4759 16.4001 69.0496 16.9469 69.4138 17.3124C69.778 17.678 74.5803 17.7459 77.0109 18.3578C79.5024 18.9698 80.3526 19.5185 80.3526 19.5185L81.9942 19.3385C81.9942 19.3385 77.2464 23.5288 76.3947 24.0142C75.5429 24.4996 74.4491 24.2547 71.8955 24.4942C69.342 24.7337 68.1845 26.4353 68.7315 26.4969C69.157 26.5584 73.4726 26.8689 75.9038 27.1159C83.8755 21.4703 97.5077 11.0884 97.5077 11.0884C100.308 8.65925 101.708 7.26219 99.8232 7.38107ZM89.6501 21.7831C90.1975 21.6014 91.1117 19.9603 90.751 17.2223L86.2474 20.7439C87.1583 21.4144 89.1635 21.9648 89.6501 21.7831Z" fill="url(#paint5_radial_3230_4)"/>
<path d="M83.2372 1.15216L84.0253 2.73524L85.7273 2.98112L84.4488 4.13524L84.7503 5.83928L83.2314 5.04608L81.7103 5.83478L82.0168 4.13165L80.8025 2.97384L82.5052 2.73299L83.2372 1.15216Z" fill="url(#paint6_radial_3230_4)"/>
<path d="M99.507 16.08L100.659 18.3933L103.211 18.8229L101.385 20.6452L101.806 23.2007L99.4982 21.9807L97.1257 23.1938L97.6158 20.6396L95.734 18.8119L98.3486 18.3899L99.507 16.08Z" fill="#00ABE6"/>
<path d="M64.9912 7.63421L65.4155 8.54747L66.4488 8.73153L65.7182 9.39972L65.8991 10.4343L64.9878 9.94622L64.0751 10.4316L64.259 9.39757L63.4696 8.72713L64.5035 8.54612L64.9912 7.63421Z" fill="url(#paint7_radial_3230_4)"/>
<path d="M74.5349 7.64844L74.7771 8.19613L75.3848 8.25784L74.9587 8.68291L75.0794 9.29123L74.5328 9.04716L73.9855 9.28961L74.0472 8.68157L73.6224 8.25523L74.2302 8.19532L74.5349 7.64844Z" fill="url(#paint8_radial_3230_4)"/>
<path d="M85.627 69.6982L86.6977 69.6998L86.7085 62.4L89.2147 62.4037L89.2161 61.5034L83.1451 61.4944L83.1437 62.3947L85.6378 62.3984L85.627 69.6982ZM93.1062 61.3632C90.9163 61.3599 89.3078 63.0608 89.3039 65.6644C89.3003 68.1464 90.8064 69.8397 92.9842 69.843C95.0768 69.846 96.7945 68.34 96.7986 65.5295C96.8022 63.0841 95.357 61.3665 93.1062 61.3632ZM93.0684 62.2269C94.8325 62.2295 95.6817 63.9341 95.6792 65.5765C95.6765 67.438 94.7252 68.9817 93.0463 68.9792C91.3673 68.9767 90.4207 67.4059 90.4233 65.6418C90.4259 63.8533 91.3043 62.2243 93.0684 62.2269ZM98.1727 61.5167L98.1656 66.3467C98.1618 68.9016 99.4257 69.8525 101.105 69.855C102.881 69.8576 104.209 68.8376 104.212 66.3191L104.219 61.5256L103.149 61.524L103.142 66.3906C103.139 68.1912 102.347 68.993 101.142 68.9912C100.047 68.9896 99.2334 68.2097 99.2361 66.3848L99.2433 61.5182L98.1727 61.5167ZM106.05 69.7284L107.108 69.73L107.114 66.1774L108.111 66.1789C109.072 66.2168 109.522 66.6433 109.764 67.7752C109.981 68.7974 110.163 69.4912 110.296 69.7347L111.391 69.7363C111.221 69.4198 111.028 68.6287 110.762 67.4846C110.568 66.6327 110.192 66.0482 109.572 65.8282L109.572 65.7917C110.424 65.501 111.106 64.7842 111.108 63.7136C111.109 63.0688 110.866 62.5087 110.465 62.1432C109.967 61.6923 109.225 61.4722 108.094 61.4705C107.376 61.4694 106.597 61.5413 106.062 61.6378L106.05 69.7284ZM107.119 62.3815C107.302 62.3331 107.655 62.2972 108.166 62.2979C109.285 62.2996 110.051 62.763 110.049 63.8215C110.048 64.7583 109.329 65.3777 108.198 65.3761L107.115 65.3745L107.119 62.3815ZM112.183 69.336C112.621 69.6287 113.484 69.8733 114.275 69.8744C116.21 69.8773 117.136 68.7715 117.138 67.5062C117.14 66.3018 116.447 65.6316 115.061 65.0942C113.93 64.6546 113.432 64.2767 113.433 63.5102C113.434 62.9505 113.861 62.282 114.98 62.2837C115.722 62.2848 116.269 62.5167 116.525 62.6753L116.818 61.8119C116.465 61.6045 115.845 61.409 115.018 61.4077C113.424 61.4054 112.364 62.3528 112.362 63.6303C112.361 64.7739 113.187 65.4808 114.524 65.9694C115.631 66.3847 116.068 66.8355 116.067 67.5898C116.066 68.4171 115.432 68.988 114.35 68.9864C113.62 68.9853 112.939 68.7532 112.465 68.4483L112.183 69.336ZM125.412 67.1778L126.285 69.7584L127.416 69.76L124.63 61.5558L123.365 61.5539L120.554 69.7499L121.649 69.7515L122.505 67.1735L125.412 67.1778ZM122.725 66.3465L123.531 63.9753C123.702 63.4767 123.825 62.9659 123.947 62.4916L123.972 62.4916C124.093 62.9663 124.213 63.4531 124.395 63.9887L125.207 66.3502L122.725 66.3465ZM129.622 69.7633L129.627 66.2594C129.629 64.8968 129.618 63.9113 129.559 62.877L129.596 62.8649C129.996 63.7537 130.542 64.6913 131.112 65.6046L133.71 69.7694L134.78 69.7709L134.793 61.5708L133.795 61.5693L133.79 65.0003C133.788 66.2777 133.811 67.2754 133.907 68.3705L133.87 68.3826C133.494 67.5426 133.009 66.6781 132.414 65.716L129.804 61.5634L128.636 61.5617L128.624 69.7618L129.622 69.7633ZM136.632 69.7493C137.167 69.811 137.788 69.8484 138.554 69.8495C140.148 69.8519 141.414 69.4401 142.194 68.6748C142.949 67.9216 143.377 66.8272 143.379 65.4889C143.381 64.1628 142.956 63.2132 142.215 62.5429C141.498 61.8849 140.416 61.5183 138.895 61.5161C138.056 61.5148 137.289 61.5867 136.644 61.6952L136.632 69.7493ZM137.701 62.4633C137.981 62.4028 138.395 62.3548 138.943 62.3556C141.181 62.3589 142.274 63.5893 142.259 65.5238C142.256 67.738 141.038 69.0015 138.762 68.9982C138.349 68.9976 137.959 68.9848 137.692 68.9479L137.701 62.4633ZM148.372 69.791L149.442 69.7926L149.453 62.4928L151.959 62.4965L151.961 61.5962L145.89 61.5872L145.888 62.4875L148.382 62.4912L148.372 69.791ZM152.862 69.7977L153.92 69.7992L153.926 66.2467L154.923 66.2481C155.884 66.2861 156.334 66.7126 156.576 67.8444C156.793 68.8667 156.974 69.5604 157.108 69.804L158.203 69.8056C158.033 69.489 157.84 68.6979 157.574 67.5539C157.38 66.7019 157.004 66.1174 156.384 65.8975L156.384 65.861C157.236 65.5703 157.918 64.8534 157.92 63.7828C157.921 63.138 157.678 62.578 157.277 62.2124C156.779 61.7615 156.037 61.5414 154.906 61.5397C154.188 61.5387 153.409 61.6105 152.874 61.7071L152.862 69.7977ZM153.931 62.4508C154.114 62.4024 154.467 62.3664 154.978 62.3672C156.097 62.3688 156.863 62.8323 156.861 63.8907C156.86 64.8275 156.141 65.447 155.01 65.4453L153.927 65.4437L153.931 62.4508ZM163.706 67.2344L164.578 69.815L165.709 69.8167L162.923 61.6124L161.658 61.6106L158.847 69.8065L159.942 69.8082L160.798 67.2301L163.706 67.2344ZM161.018 66.4032L161.824 64.0319C161.996 63.5333 162.118 63.0225 162.24 62.5482L162.265 62.5483C162.386 63.0229 162.507 63.5098 162.688 64.0454L163.5 66.4068L161.018 66.4032ZM169.244 69.8219L172.189 61.6261L171.057 61.6245L169.664 65.6738C169.285 66.7439 168.955 67.7775 168.723 68.7262L168.698 68.7261C168.469 67.7646 168.166 66.7666 167.827 65.6589L166.556 61.6178L165.4 61.6161L168.076 69.8202L169.244 69.8219ZM177.301 65.1133L174.125 65.1086L174.129 62.5171L177.499 62.5221L177.501 61.634L173.06 61.6274L173.048 69.8275L177.671 69.8344L177.672 68.9462L174.12 68.941L174.124 65.9846L177.3 65.9893L177.301 65.1133ZM179.036 69.8364L183.61 69.8432L183.612 68.955L180.108 68.9498L180.119 61.6379L179.048 61.6363L179.036 69.8364ZM184.374 69.4428C184.811 69.7354 185.675 69.98 186.465 69.9812C188.4 69.9841 189.326 68.8783 189.328 67.613C189.33 66.4085 188.637 65.7384 187.251 65.201C186.12 64.7613 185.622 64.3834 185.623 63.617C185.624 63.0573 186.051 62.3888 187.17 62.3904C187.912 62.3915 188.459 62.6235 188.715 62.782L189.008 61.9187C188.655 61.7113 188.035 61.5157 187.208 61.5145C185.614 61.5122 184.554 62.4596 184.552 63.737C184.551 64.8807 185.377 65.5875 186.715 66.0762C187.821 66.4915 188.258 66.9423 188.257 67.6966C188.256 68.5239 187.623 69.0948 186.54 69.0932C185.81 69.0921 185.129 68.8599 184.655 68.5551L184.374 69.4428Z" fill="white"/>
</g>
<path d="M77.7664 33.7872L85.1845 59.0121L91.1385 59.0209L94.3636 48.7744C95.0922 46.2903 95.7171 43.8061 96.2912 40.7005L96.3948 40.7007C96.9598 43.7562 97.5258 46.1386 98.2985 48.7802L101.286 59.0359L107.188 59.0446L115.147 33.8425L108.882 33.8332L106.07 45.0122C105.393 47.9623 104.767 50.7054 104.401 53.4489L104.297 53.4487C103.732 50.7039 103.063 47.9589 102.291 45.0066L99.149 33.8188L93.9716 33.8111L90.6411 45.3C89.9642 47.8877 89.1317 50.6823 88.6099 53.4255L88.5063 53.4254C88.0444 50.6807 87.479 47.9358 86.8617 45.2427L84.2899 33.7968L77.7664 33.7872ZM130.024 33.295C122.413 33.2837 116.969 38.3495 116.957 46.6333C116.945 54.7618 122.478 59.6367 129.571 59.6472C135.991 59.6567 142.52 55.5245 142.534 46.2569C142.545 38.5944 137.531 33.3061 130.024 33.295ZM129.862 37.9026C134.211 37.909 135.964 42.4677 135.959 46.4025C135.951 51.5281 133.409 55.045 129.785 55.0397C125.953 55.034 123.526 51.3544 123.533 46.4877C123.539 42.294 125.358 37.8959 129.862 37.9026ZM147.768 59.1046L154.136 59.114L154.155 46.0153C154.156 45.3422 154.209 44.6692 154.313 44.0999C154.887 41.2014 157.013 39.2889 160.016 39.2933C160.792 39.2945 161.362 39.3471 161.931 39.4515L161.94 33.4975C161.422 33.3932 161.06 33.3409 160.439 33.3399C157.695 33.3359 154.741 35.1436 153.493 38.6624L153.338 38.6622L153.086 33.8986L147.598 33.8905C147.75 36.117 147.798 38.6022 147.793 42.0193L147.768 59.1046ZM166.222 59.1319L172.59 59.1413L172.645 22.3819L166.277 22.3725L166.222 59.1319ZM196.452 22.4171L196.431 36.6549L196.328 36.6548C195.191 34.7892 192.708 33.3877 189.239 33.3825C183.182 33.3736 177.894 38.3878 177.933 46.827C177.921 54.5931 182.677 59.7258 188.735 59.7347C192.359 59.7401 195.416 57.9843 196.922 55.1907L197.025 55.1909L197.33 59.1779L202.973 59.1863C202.872 57.4776 202.773 54.6816 202.777 52.0929L202.82 22.4266L196.452 22.4171ZM196.414 48.2523C196.413 48.9253 196.36 49.5465 196.204 50.1158C195.579 52.8589 193.298 54.6158 190.71 54.612C186.671 54.606 184.398 51.2374 184.405 46.5777C184.412 41.9181 186.695 38.2973 190.785 38.3033C193.685 38.3076 195.701 40.3298 196.267 42.764C196.37 43.2819 196.42 43.955 196.42 44.4728L196.414 48.2523Z" fill="#00ABE6"/>
<path d="M216.696 59.2066L216.726 38.7559L221.852 38.7635L221.859 34.0003L216.682 33.9926L216.683 32.8536C216.688 29.4883 218.142 26.6947 222.025 26.7004C223.63 26.7028 224.717 26.9115 225.39 27.2749L225.342 59.2193L231.71 59.2288L231.763 23.8155C229.538 22.6214 226.433 21.892 223.016 21.8869C219.185 21.8812 216.284 22.7571 214.107 24.566C211.67 26.5816 210.371 29.7378 210.367 32.896L210.365 33.9833L206.948 33.9782L206.941 38.7414L210.358 38.7465L210.328 59.1971L216.696 59.2066ZM235.558 34.0206L244.791 57.1772C245.049 57.7988 245.1 58.1613 245.1 58.4202C245.1 58.7308 244.996 59.0931 244.736 59.5587C243.853 61.2659 242.453 62.7653 241.209 63.5401C239.914 64.4701 238.619 65.0377 237.531 65.2949L238.973 70.6298C240.526 70.425 243.116 69.6004 245.656 67.4297C248.611 64.8453 250.947 60.6551 254.43 51.2374L260.772 34.0578L253.989 34.0478L250.035 47.5032C249.515 49.1074 249.046 51.0224 248.681 52.4197L248.526 52.4195C248.166 51.0211 247.599 49.1046 247.084 47.5506L242.599 34.031L235.558 34.0206Z" fill="white"/>
<defs>
<radialGradient id="paint0_radial_3230_4" cx="0" cy="0" r="1" gradientUnits="userSpaceOnUse" gradientTransform="translate(10.826 16.9591) rotate(0.0847422) scale(50.0901 50.1246)">
<stop stop-color="#0086CC"/>
<stop offset="0.9995" stop-color="#0062AF"/>
</radialGradient>
<radialGradient id="paint1_radial_3230_4" cx="0" cy="0" r="1" gradientUnits="userSpaceOnUse" gradientTransform="translate(60.4342 44.8328) rotate(0.0847422) scale(47.1908 47.2233)">
<stop stop-color="#FDB913"/>
<stop offset="0.9995" stop-color="#F15623"/>
</radialGradient>
<radialGradient id="paint2_radial_3230_4" cx="0" cy="0" r="1" gradientUnits="userSpaceOnUse" gradientTransform="translate(66.4323 45.0481) rotate(0.0847422) scale(45.3974 45.4286)">
<stop stop-color="#B2D33E"/>
<stop offset="0.9995" stop-color="#62B16B"/>
</radialGradient>
<radialGradient id="paint3_radial_3230_4" cx="0" cy="0" r="1" gradientUnits="userSpaceOnUse" gradientTransform="translate(20.3804 46.0544) rotate(0.0847422) scale(58.1543 58.1944)">
<stop stop-color="#B95AA2"/>
<stop offset="0.6853" stop-color="#6A2C91"/>
<stop offset="1" stop-color="#2F2956"/>
</radialGradient>
<radialGradient id="paint4_radial_3230_4" cx="0" cy="0" r="1" gradientUnits="userSpaceOnUse" gradientTransform="translate(19.501 16.0612) rotate(7.386) scale(27.0552 27.0733)">
<stop stop-color="#AFD89F"/>
<stop offset="0.9995" stop-color="#0093B2"/>
</radialGradient>
<radialGradient id="paint5_radial_3230_4" cx="0" cy="0" r="1" gradientUnits="userSpaceOnUse" gradientTransform="translate(89.9748 8.82068) rotate(0.0847422) scale(15.4147 15.4253)">
<stop stop-color="#6A2C91"/>
<stop offset="0.1458" stop-color="#5E2B81"/>
<stop offset="0.4142" stop-color="#4A2B6E"/>
<stop offset="0.6557" stop-color="#3C2A60"/>
<stop offset="0.8592" stop-color="#322958"/>
<stop offset="1" stop-color="#2F2956"/>
</radialGradient>
<radialGradient id="paint6_radial_3230_4" cx="0" cy="0" r="1" gradientUnits="userSpaceOnUse" gradientTransform="translate(82.1723 2.16392) rotate(0.0847422) scale(3.74575 3.74833)">
<stop stop-color="#6A2C91"/>
<stop offset="0.1458" stop-color="#5E2B81"/>
<stop offset="0.4142" stop-color="#4A2B6E"/>
<stop offset="0.6557" stop-color="#3C2A60"/>
<stop offset="0.8592" stop-color="#322958"/>
<stop offset="1" stop-color="#2F2956"/>
</radialGradient>
<radialGradient id="paint7_radial_3230_4" cx="0" cy="0" r="1" gradientUnits="userSpaceOnUse" gradientTransform="translate(64.9761 9.03703) rotate(0.0847422) scale(1.44925 1.45025)">
<stop stop-color="#0086CC"/>
<stop offset="0.9995" stop-color="#0062AF"/>
</radialGradient>
<radialGradient id="paint8_radial_3230_4" cx="0" cy="0" r="1" gradientUnits="userSpaceOnUse" gradientTransform="translate(74.5092 8.47359) rotate(0.0847422) scale(0.861319 0.861919)">
<stop stop-color="#6A2C91"/>
<stop offset="0.1458" stop-color="#5E2B81"/>
<stop offset="0.4142" stop-color="#4A2B6E"/>
<stop offset="0.6557" stop-color="#3C2A60"/>
<stop offset="0.8592" stop-color="#322958"/>
<stop offset="1" stop-color="#2F2956"/>
</radialGradient>
<clipPath id="clip0_3230_4">
<rect width="218.248" height="77.7914" fill="white" transform="translate(0.563965 0.908203) rotate(0.0847422)"/>
</clipPath>
</defs>
</svg>
