<svg width="181" height="55" viewBox="0 0 181 55" fill="none" xmlns="http://www.w3.org/2000/svg">
<g clip-path="url(#clip0_3227_2)">
<path d="M28.6166 5.20693C16.5926 3.66899 5.52567 11.2112 2.30199 22.4809C8.58022 28.6975 27.778 30.1193 47.4164 18.9161C44.0091 11.6904 37.1388 6.31743 28.6166 5.20693Z" fill="url(#paint0_radial_3227_2)"/>
<path d="M49.1386 24.1123C36.3808 33.7211 18.6431 43.6604 4.84743 41.6975C6.48907 44.4447 8.67984 46.8126 11.2933 48.7167C26.7827 46.7127 39.7539 35.5419 49.4733 26.0553C49.3899 25.4217 49.3064 24.7882 49.1386 24.1123Z" fill="url(#paint1_radial_3227_2)"/>
<path d="M49.5987 26.9003C43.8062 34.6614 30.6188 49.379 17.6181 52.02C19.1364 52.529 20.7393 52.9536 22.4269 53.1672C35.6744 54.8759 47.7989 45.5195 49.5063 32.3051C49.72 30.4897 49.7649 28.674 49.5987 26.9003Z" fill="url(#paint2_radial_3227_2)"/>
<path d="M58.6491 13.5273C55.2271 16.2248 51.6791 18.542 48.0893 20.6058C31.365 30.1243 13.8917 32.5053 1.3219 29.0664C1.31784 31.8111 1.73587 34.472 2.61827 37.0069C15.9483 39.9825 32.5846 32.8708 48.5934 22.0845C52.0149 19.7671 55.3943 17.2807 58.7317 14.7098C60.2955 13.0653 60.1274 12.6006 58.6491 13.5273Z" fill="url(#paint3_radial_3227_2)"/>
<path d="M28.7284 14.9619C27.4629 14.7066 28.7303 13.6951 28.1399 13.4408C27.5495 13.1866 27.6324 14.2002 26.5348 14.5363C25.4371 14.8725 26.1562 13.6913 25.6512 12.8038C25.1039 11.9162 23.5004 11.956 23.3732 12.3359C23.2461 12.7157 22.9927 12.8421 22.9916 13.5599C22.9906 14.2778 24.0029 14.5748 22.6521 14.8684C21.3435 15.1621 22.398 15.4592 22.1864 15.9234C21.9747 16.3876 21.6795 16.2605 21.6381 15.7115C21.6389 15.1625 21.8089 14.3605 20.1211 14.3157C18.4332 14.271 18.1825 12.6238 18.6477 11.9489C19.155 11.274 19.7874 11.6972 20.294 11.529C20.8006 11.3609 20.5483 10.7693 21.2655 10.8548C21.9828 10.9404 22.8273 10.5616 22.6173 9.84341C22.4075 9.08302 21.6467 9.8842 20.8869 10.0942C20.127 10.3042 21.0138 9.88326 20.086 9.50185C19.1581 9.16267 19.2833 10.1341 18.861 10.3868C18.4386 10.6395 18.3125 10.3015 17.5109 10.2159C16.7093 10.1303 15.7385 10.2977 15.0628 10.6345C14.3872 10.9291 12.9955 10.3781 12.0254 10.0811C10.4202 11.2188 8.94131 12.5679 7.67314 14.0862C7.79923 14.4242 7.92527 14.8044 8.00916 15.1423C8.30261 16.4518 8.26134 15.8183 8.59742 16.8323C8.93351 17.8462 8.34062 19.281 7.53687 20.6311C6.73312 21.9812 7.62039 21.2224 8.29411 22.1946C8.96783 23.1668 8.2933 22.7436 8.37694 23.2504C8.41864 23.5883 8.71303 24.2643 9.04936 25.1094C9.17589 25.1518 9.34462 25.1942 9.47115 25.2367C9.09305 24.096 9.30491 23.5051 9.55716 24.1389C9.68319 24.5191 9.93581 24.8995 10.2304 25.4067C11.4115 25.704 12.7615 25.9171 14.2382 26.0882C14.4497 25.7085 14.7456 25.4134 15.1253 25.4139C16.2224 25.4578 15.6738 25.4992 16.7714 25.2052C17.8689 24.9535 17.3622 25.1216 17.8262 25.249C18.1215 25.3339 18.4585 25.7144 19.0063 26.222C19.5127 26.2227 20.0191 26.1812 20.5678 26.1398C20.4419 25.6329 20.274 25.0415 20.2324 24.6614C20.1495 23.6056 21.4153 23.6919 22.0074 22.8061C22.5995 21.9202 23.402 21.3724 24.2892 20.6981C25.1763 20.0238 24.9232 19.9812 25.8938 19.9404C26.8644 19.8996 26.1043 20.2785 26.8217 20.2796C27.539 20.2806 27.962 19.5634 26.8235 19.055C25.6848 18.5888 27.2885 18.4645 26.3605 18.252C25.4325 18.0395 25.7283 17.7021 25.7283 17.7021C25.7283 17.7021 28.1763 17.368 29.6952 17.4969C31.2141 17.6258 30.7948 15.8094 30.7113 15.2182C30.5433 14.7112 29.994 15.2171 28.7284 14.9619ZM22.1122 9.04035C22.4919 9.08314 24.4746 9.42389 25.1491 9.93161C25.8235 10.4393 25.6539 10.9458 24.6833 10.9866C24.0503 11.0279 23.2907 11.069 24.303 11.3238C25.3154 11.6209 25.7377 11.3682 25.99 11.9597C26.2423 12.5513 27.0434 12.9747 27.086 12.7636C27.1285 12.5104 26.0743 12.0021 27.0025 12.1301C27.9307 12.2582 28.1837 12.343 27.8469 11.8358C27.5101 11.3286 26.2871 10.82 27.384 10.9906C28.4809 11.1189 30.462 12.5997 28.7342 11.077C27.0063 9.55431 26.9212 10.0609 27.0063 9.55432C27.0492 9.08989 28.0195 9.218 26.5853 8.9203C25.1931 8.66488 24.9816 9.0446 24.7713 8.53757C24.6033 8.0306 24.6468 7.14391 23.8861 7.94509C23.1253 8.74627 23.6728 9.46493 23.1253 8.74627C22.5778 8.02761 21.1851 8.19445 21.1851 8.19445C21.2683 8.95465 21.7324 8.99757 22.1122 9.04035ZM38.8212 9.86738C36.1233 8.00542 32.9604 6.69171 29.5011 6.09542C29.5427 6.47553 29.6265 6.89791 29.7102 7.36253C29.752 7.65818 29.2453 7.86857 30.0042 8.29195C30.7631 8.71534 31.8602 8.75919 31.2691 9.01168C30.6779 9.26416 29.9607 9.17864 30.3402 9.39034C30.7196 9.60203 31.6057 9.64557 31.268 9.72952C30.9302 9.8557 30.3401 9.43257 30.6342 10.2775C30.9284 11.1225 30.8855 11.5869 31.9388 12.6864C32.9921 13.7858 33.7112 12.6045 33.8791 13.2382C34.0468 13.9141 33.4551 14.5466 34.3829 14.9702C35.2684 15.3938 35.4807 14.4651 35.44 13.4939C35.3992 12.5226 34.5976 12.4369 35.5688 11.9739C36.4978 11.553 36.6237 12.0177 37.1732 11.3851C37.7227 10.7525 37.8495 10.5838 37.8077 10.3304C37.7233 10.3302 38.23 10.1199 38.8212 9.86738Z" fill="url(#paint4_radial_3227_2)"/>
<path d="M69.9278 5.09883C68.873 5.01282 67.2261 5.77047 66.4239 6.10709C65.6638 6.44378 63.4671 8.12959 61.5668 9.05577C59.6244 9.98188 58.1475 9.97969 56.7128 9.93534C55.2782 9.89099 52.7047 9.50715 50.5088 10.6018C48.862 11.3594 48.566 11.739 48.8188 11.9928C49.0716 12.2465 52.4052 12.2937 54.0924 12.7184C55.8219 13.1432 56.4121 13.5242 56.4121 13.5242L57.5516 13.3992C57.5516 13.3992 54.2559 16.3079 53.6647 16.6449C53.0734 16.9818 52.3141 16.8118 50.5415 16.9781C48.769 17.1443 47.9655 18.3255 48.3452 18.3683C48.6405 18.4109 51.6362 18.6265 53.3239 18.7979C58.8576 14.879 68.3205 7.67228 68.3205 7.67228C70.264 5.98609 71.236 5.01632 69.9278 5.09883ZM62.866 15.0961C63.246 14.97 63.8806 13.8308 63.6302 11.9302L60.504 14.3747C61.1363 14.8402 62.5282 15.2223 62.866 15.0961Z" fill="url(#paint5_radial_3227_2)"/>
<path d="M58.4143 0.774714L58.9613 1.87362L60.1428 2.0443L59.2553 2.84545L59.4646 4.02832L58.4103 3.47771L57.3543 4.0252L57.5671 2.84295L56.7242 2.03925L57.9062 1.87206L58.4143 0.774714Z" fill="url(#paint6_radial_3227_2)"/>
<path d="M69.7088 11.1374L70.5083 12.7435L72.2805 13.0418L71.0124 14.3069L71.3053 16.0812L69.7027 15.2341L68.0554 16.0764L68.3957 14.3031L67.0892 13.0341L68.9045 12.7411L69.7088 11.1374Z" fill="#00ABE6"/>
<path d="M45.7487 5.27402L46.0432 5.90797L46.7605 6.03574L46.2534 6.49957L46.3789 7.21774L45.7464 6.87893L45.1128 7.21587L45.2405 6.49807L44.6925 6.03268L45.4102 5.90704L45.7487 5.27402Z" fill="url(#paint7_radial_3227_2)"/>
<path d="M52.3735 5.28389L52.5417 5.66408L52.9635 5.70691L52.6677 6.00198L52.7515 6.42425L52.3721 6.25483L51.9921 6.42313L52.035 6.00105L51.7401 5.7051L52.162 5.66352L52.3735 5.28389Z" fill="url(#paint8_radial_3227_2)"/>
<path d="M60.0746 47.721L60.8178 47.7221L60.8252 42.6549L62.565 42.6575L62.5659 42.0325L58.3517 42.0263L58.3508 42.6513L60.0821 42.6538L60.0746 47.721ZM65.2663 41.9352C63.7461 41.9329 62.6296 43.1136 62.6269 44.921C62.6244 46.6438 63.6698 47.8193 65.1816 47.8215C66.6342 47.8236 67.8265 46.7782 67.8294 44.8273C67.8319 43.1298 66.8287 41.9375 65.2663 41.9352ZM65.2401 42.5348C66.4646 42.5366 67.0541 43.7198 67.0524 44.8599C67.0505 46.1521 66.3901 47.2237 65.2247 47.2219C64.0592 47.2202 63.4021 46.1298 63.4039 44.9052C63.4057 43.6637 64.0155 42.533 65.2401 42.5348ZM68.7832 42.0417L68.7783 45.3945C68.7756 47.1681 69.653 47.8281 70.8185 47.8298C72.0515 47.8317 72.9731 47.1236 72.9757 45.3754L72.9806 42.0479L72.2374 42.0468L72.2324 45.425C72.2305 46.6749 71.6808 47.2315 70.8447 47.2303C70.0846 47.2291 69.5196 46.6878 69.5214 45.421L69.5264 42.0428L68.7832 42.0417ZM74.2513 47.742L74.986 47.7431L74.9897 45.2771L75.6822 45.2781C76.3494 45.3044 76.6614 45.6005 76.8291 46.3861C76.9801 47.0958 77.1061 47.5773 77.1987 47.7464L77.9588 47.7475C77.8409 47.5277 77.7066 46.9786 77.522 46.1845C77.3877 45.5931 77.1265 45.1873 76.696 45.0347L76.6961 45.0093C77.2875 44.8075 77.7612 44.3099 77.7623 43.5667C77.763 43.1191 77.5946 42.7304 77.3163 42.4766C76.9705 42.1636 76.4556 42.0109 75.6702 42.0097C75.1719 42.009 74.6313 42.0588 74.2596 42.1258L74.2513 47.742ZM74.9936 42.6421C75.1203 42.6085 75.3653 42.5835 75.72 42.5841C76.497 42.5852 77.0285 42.9069 77.0275 43.6417C77.0265 44.292 76.5276 44.7219 75.7422 44.7208L74.9905 44.7197L74.9936 42.6421ZM78.5089 47.4696C78.8126 47.6728 79.412 47.8425 79.961 47.8434C81.3038 47.8453 81.9468 47.0778 81.9481 46.1994C81.9493 45.3634 81.4686 44.8981 80.5064 44.5251C79.7214 44.2199 79.3755 43.9576 79.3763 43.4256C79.3769 43.0371 79.6732 42.573 80.4501 42.5742C80.9653 42.5749 81.3451 42.7359 81.5223 42.846L81.7259 42.2467C81.4812 42.1027 81.0507 41.967 80.4764 41.9661C79.37 41.9645 78.6343 42.6221 78.633 43.5089C78.6318 44.3028 79.2054 44.7935 80.1339 45.1326C80.902 45.4209 81.2056 45.7339 81.2048 46.2575C81.2039 46.8318 80.7642 47.228 80.0125 47.2269C79.5058 47.2262 79.0331 47.065 78.7041 46.8534L78.5089 47.4696ZM87.6919 45.9715L88.2973 47.7628L89.0828 47.764L87.1487 42.0689L86.2704 42.0676L84.3196 47.7569L85.0796 47.758L85.6735 45.9685L87.6919 45.9715ZM85.8263 45.3944L86.3862 43.7484C86.5049 43.4023 86.5899 43.0477 86.6748 42.7185L86.6917 42.7185C86.7757 43.048 86.8596 43.386 86.9858 43.7577L87.5492 45.397L85.8263 45.3944ZM90.6139 47.7662L90.6175 45.3339C90.6189 44.3881 90.6115 43.704 90.5703 42.9861L90.5957 42.9777C90.8735 43.5946 91.2525 44.2454 91.6485 44.8794L93.4516 47.7704L94.1948 47.7715L94.2032 42.0793L93.5107 42.0783L93.5071 44.4599C93.5058 45.3467 93.5217 46.0392 93.5881 46.7994L93.5628 46.8078C93.3018 46.2247 92.9649 45.6246 92.5521 44.9568L90.7406 42.0742L89.9298 42.073L89.9214 47.7652L90.6139 47.7662ZM95.4802 47.7565C95.8517 47.7993 96.2824 47.8253 96.8145 47.8261C97.9208 47.8277 98.7996 47.5419 99.3409 47.0106C99.8652 46.4878 100.162 45.7281 100.163 44.7991C100.165 43.8786 99.8701 43.2194 99.3556 42.7541C98.858 42.2974 98.1067 42.0429 97.0511 42.0413C96.4683 42.0405 95.9362 42.0903 95.4885 42.1657L95.4802 47.7565ZM96.2224 42.6988C96.4167 42.6569 96.7039 42.6235 97.084 42.6241C98.6379 42.6264 99.3967 43.4805 99.3863 44.8233C99.384 46.3604 98.5382 47.2374 96.9589 47.2351C96.6718 47.2347 96.4015 47.2258 96.2158 47.2002L96.2224 42.6988ZM103.629 47.7855L104.372 47.7866L104.38 42.7193L106.12 42.7219L106.121 42.097L101.906 42.0907L101.905 42.7157L103.637 42.7182L103.629 47.7855ZM106.746 47.7901L107.481 47.7912L107.485 45.3251L108.177 45.3261C108.844 45.3525 109.156 45.6485 109.324 46.4342C109.475 47.1438 109.601 47.6254 109.694 47.7944L110.454 47.7956C110.336 47.5758 110.201 47.0267 110.017 46.2325C109.883 45.6411 109.621 45.2354 109.191 45.0827L109.191 45.0574C109.782 44.8556 110.256 44.358 110.257 43.6148C110.258 43.1672 110.09 42.7785 109.811 42.5247C109.465 42.2117 108.95 42.0589 108.165 42.0578C107.667 42.057 107.126 42.1069 106.754 42.1739L106.746 47.7901ZM107.488 42.6902C107.615 42.6566 107.86 42.6316 108.215 42.6321C108.992 42.6333 109.523 42.955 109.522 43.6897C109.521 44.34 109.022 44.77 108.237 44.7688L107.485 44.7677L107.488 42.6902ZM114.273 46.0108L114.879 47.8021L115.664 47.8033L113.73 42.1082L112.852 42.1069L110.901 47.7962L111.661 47.7973L112.255 46.0078L114.273 46.0108ZM112.408 45.4337L112.968 43.7877C113.086 43.4416 113.171 43.0871 113.256 42.7578L113.273 42.7578C113.357 43.0873 113.441 43.4253 113.567 43.7971L114.131 45.4363L112.408 45.4337ZM118.118 47.8069L120.162 42.1177L119.377 42.1166L118.41 44.9274C118.147 45.6703 117.918 46.3878 117.756 47.0463L117.739 47.0462C117.58 46.3788 117.37 45.686 117.134 44.9171L116.252 42.1119L115.449 42.1108L117.307 47.8057L118.118 47.8069ZM123.711 44.5384L121.506 44.5351L121.509 42.7362L123.848 42.7397L123.849 42.1232L120.767 42.1186L120.758 47.8108L123.968 47.8155L123.969 47.199L121.502 47.1954L121.505 45.1432L123.71 45.1464L123.711 44.5384ZM124.915 47.8169L128.091 47.8216L128.091 47.2051L125.659 47.2015L125.667 42.1259L124.923 42.1248L124.915 47.8169ZM128.62 47.5437C128.924 47.7469 129.523 47.9167 130.072 47.9175C131.415 47.9195 132.058 47.1519 132.059 46.2736C132.061 45.4375 131.58 44.9723 130.618 44.5992C129.833 44.294 129.487 44.0317 129.488 43.4997C129.488 43.1112 129.785 42.6471 130.562 42.6483C131.077 42.649 131.456 42.8101 131.634 42.9201L131.837 42.3208C131.593 42.1769 131.162 42.0411 130.588 42.0402C129.481 42.0386 128.746 42.6963 128.744 43.583C128.743 44.3769 129.317 44.8676 130.245 45.2068C131.013 45.495 131.317 45.808 131.316 46.3316C131.315 46.9059 130.876 47.3021 130.124 47.301C129.617 47.3003 129.144 47.1391 128.815 46.9275L128.62 47.5437Z" fill="#2A3950"/>
</g>
<path d="M53.5328 22.4983L58.6821 40.0084L62.8151 40.0145L65.0539 32.9018C65.5596 31.1775 65.9934 29.453 66.3919 27.2973L66.4638 27.2974C66.856 29.4184 67.2489 31.0722 67.7853 32.9059L69.8592 40.0249L73.9563 40.031L79.4809 22.5367L75.1322 22.5303L73.18 30.2903C72.7098 32.3381 72.2757 34.2422 72.0213 36.1467L71.9494 36.1465C71.5569 34.2412 71.0925 32.3357 70.5565 30.2864L68.3757 22.5203L64.7817 22.515L62.4698 30.4901C62 32.2863 61.4221 34.2262 61.0598 36.1304L60.988 36.1303C60.6673 34.2251 60.2748 32.3197 59.8463 30.4502L58.0611 22.505L53.5328 22.4983ZM89.8078 22.1566C84.5247 22.1488 80.7459 25.6653 80.7374 31.4156C80.7291 37.058 84.5696 40.442 89.4932 40.4493C93.9497 40.4559 98.4823 37.5874 98.4918 31.1543C98.4997 25.8353 95.019 22.1643 89.8078 22.1566ZM89.6953 25.3551C92.7141 25.3595 93.9314 28.524 93.9274 31.2554C93.9221 34.8134 92.1575 37.2546 89.6417 37.2509C86.9822 37.247 85.2968 34.6928 85.3018 31.3145C85.3061 28.4034 86.5685 25.3504 89.6953 25.3551ZM102.125 40.0726L106.545 40.0792L106.559 30.9865C106.559 30.5193 106.596 30.0522 106.669 29.6569C107.067 27.6449 108.542 26.3174 110.627 26.3204C111.166 26.3212 111.561 26.3578 111.956 26.4302L111.962 22.2972C111.603 22.2248 111.352 22.1885 110.92 22.1879C109.016 22.185 106.965 23.4399 106.099 25.8825L105.991 25.8823L105.816 22.5756L102.007 22.57C102.112 24.1156 102.146 25.8407 102.142 28.2127L102.125 40.0726ZM114.935 40.0916L119.356 40.0981L119.393 14.5813L114.973 14.5747L114.935 40.0916ZM135.92 14.6057L135.905 24.489L135.833 24.4889C135.044 23.1939 133.321 22.221 130.913 22.2174C126.708 22.2112 123.037 25.6919 123.064 31.55C123.056 36.9409 126.357 40.5038 130.562 40.51C133.078 40.5137 135.2 39.2949 136.245 37.3558L136.317 37.3559L136.529 40.1235L140.446 40.1293C140.376 38.9432 140.307 37.0024 140.31 35.2054L140.34 14.6122L135.92 14.6057ZM135.893 32.5394C135.892 33.0066 135.856 33.4378 135.747 33.833C135.313 35.7371 133.73 36.9567 131.933 36.954C129.13 36.9499 127.552 34.6115 127.557 31.377C127.562 28.1425 129.147 25.6291 131.986 25.6333C133.998 25.6362 135.398 27.0399 135.791 28.7297C135.862 29.0892 135.897 29.5564 135.897 29.9158L135.893 32.5394Z" fill="#00ABE6"/>
<path d="M149.972 40.1434L149.993 25.9474L153.551 25.9527L153.556 22.6463L149.962 22.6409L149.963 21.8503C149.966 19.5142 150.976 17.575 153.671 17.579C154.785 17.5806 155.54 17.7255 156.007 17.9778L155.974 40.1523L160.394 40.1588L160.431 15.5764C158.886 14.7475 156.731 14.2412 154.359 14.2376C151.699 14.2337 149.686 14.8417 148.175 16.0973C146.483 17.4965 145.582 19.6874 145.578 21.8797L145.577 22.6345L143.205 22.6309L143.2 25.9374L145.572 25.9409L145.551 40.1368L149.972 40.1434ZM163.065 22.6603L169.474 38.7347C169.653 39.1662 169.689 39.4178 169.689 39.5975C169.688 39.8132 169.616 40.0646 169.436 40.3878C168.823 41.5729 167.851 42.6137 166.988 43.1515C166.089 43.7971 165.19 44.1911 164.435 44.3697L165.435 48.0729C166.514 47.9307 168.312 47.3584 170.075 45.8515C172.126 44.0576 173.748 41.1489 176.165 34.6115L180.567 22.6862L175.859 22.6792L173.114 32.0194C172.753 33.133 172.428 34.4623 172.175 35.4322L172.067 35.4321C171.817 34.4613 171.423 33.131 171.066 32.0523L167.953 22.6675L163.065 22.6603Z" fill="#2A3950"/>
<defs>
<radialGradient id="paint0_radial_3227_2" cx="0" cy="0" r="1" gradientUnits="userSpaceOnUse" gradientTransform="translate(8.14998 11.7476) rotate(0.0847422) scale(34.7705 34.7944)">
<stop stop-color="#0086CC"/>
<stop offset="0.9995" stop-color="#0062AF"/>
</radialGradient>
<radialGradient id="paint1_radial_3227_2" cx="0" cy="0" r="1" gradientUnits="userSpaceOnUse" gradientTransform="translate(42.5854 31.0962) rotate(0.0847422) scale(32.7579 32.7804)">
<stop stop-color="#FDB913"/>
<stop offset="0.9995" stop-color="#F15623"/>
</radialGradient>
<radialGradient id="paint2_radial_3227_2" cx="0" cy="0" r="1" gradientUnits="userSpaceOnUse" gradientTransform="translate(46.749 31.2462) rotate(0.0847422) scale(31.5129 31.5346)">
<stop stop-color="#B2D33E"/>
<stop offset="0.9995" stop-color="#62B16B"/>
</radialGradient>
<radialGradient id="paint3_radial_3227_2" cx="0" cy="0" r="1" gradientUnits="userSpaceOnUse" gradientTransform="translate(14.782 31.944) rotate(0.0847422) scale(40.3683 40.3961)">
<stop stop-color="#B95AA2"/>
<stop offset="0.6853" stop-color="#6A2C91"/>
<stop offset="1" stop-color="#2F2956"/>
</radialGradient>
<radialGradient id="paint4_radial_3227_2" cx="0" cy="0" r="1" gradientUnits="userSpaceOnUse" gradientTransform="translate(14.1714 11.125) rotate(7.386) scale(18.7806 18.7931)">
<stop stop-color="#AFD89F"/>
<stop offset="0.9995" stop-color="#0093B2"/>
</radialGradient>
<radialGradient id="paint5_radial_3227_2" cx="0" cy="0" r="1" gradientUnits="userSpaceOnUse" gradientTransform="translate(63.0914 6.09815) rotate(0.0847422) scale(10.7003 10.7076)">
<stop stop-color="#6A2C91"/>
<stop offset="0.1458" stop-color="#5E2B81"/>
<stop offset="0.4142" stop-color="#4A2B6E"/>
<stop offset="0.6557" stop-color="#3C2A60"/>
<stop offset="0.8592" stop-color="#322958"/>
<stop offset="1" stop-color="#2F2956"/>
</radialGradient>
<radialGradient id="paint6_radial_3227_2" cx="0" cy="0" r="1" gradientUnits="userSpaceOnUse" gradientTransform="translate(57.6751 1.47703) rotate(0.0847422) scale(2.60014 2.60193)">
<stop stop-color="#6A2C91"/>
<stop offset="0.1458" stop-color="#5E2B81"/>
<stop offset="0.4142" stop-color="#4A2B6E"/>
<stop offset="0.6557" stop-color="#3C2A60"/>
<stop offset="0.8592" stop-color="#322958"/>
<stop offset="1" stop-color="#2F2956"/>
</radialGradient>
<radialGradient id="paint7_radial_3227_2" cx="0" cy="0" r="1" gradientUnits="userSpaceOnUse" gradientTransform="translate(45.7383 6.24781) rotate(0.0847422) scale(1.00601 1.0067)">
<stop stop-color="#0086CC"/>
<stop offset="0.9995" stop-color="#0062AF"/>
</radialGradient>
<radialGradient id="paint8_radial_3227_2" cx="0" cy="0" r="1" gradientUnits="userSpaceOnUse" gradientTransform="translate(52.3557 5.85668) rotate(0.0847422) scale(0.597892 0.598308)">
<stop stop-color="#6A2C91"/>
<stop offset="0.1458" stop-color="#5E2B81"/>
<stop offset="0.4142" stop-color="#4A2B6E"/>
<stop offset="0.6557" stop-color="#3C2A60"/>
<stop offset="0.8592" stop-color="#322958"/>
<stop offset="1" stop-color="#2F2956"/>
</radialGradient>
<clipPath id="clip0_3227_2">
<rect width="151.499" height="53.9995" fill="white" transform="translate(1.02612 0.605469) rotate(0.0847422)"/>
</clipPath>
</defs>
</svg>
