<svg width="24" height="24" viewBox="0 0 24 24" fill="none" xmlns="http://www.w3.org/2000/svg">
<g clip-path="url(#clip0_17_454)">
<path d="M0.885498 15.0207C0.996749 14.8684 1.09043 14.7045 1.21925 14.5698C1.46517 14.3063 1.72281 14.0604 1.97459 13.8086C2.16781 13.6095 2.39617 13.5393 2.67137 13.6095C3.45598 13.8086 4.24059 14.0018 5.05448 14.2068C4.2523 15.208 3.45598 16.1976 2.64795 17.2047C2.41373 16.9705 2.18538 16.7363 1.95116 16.5079C1.7111 16.2679 1.45932 16.0278 1.22511 15.776C1.09629 15.6413 0.996749 15.4832 0.885498 15.331C0.885498 15.2256 0.885498 15.1202 0.885498 15.0207Z" fill="#006270"/>
<path d="M8.81951 23.2534C8.65556 23.1246 8.4799 23.0134 8.32766 22.867C7.91193 22.4688 7.50792 22.0531 7.1039 21.6491C7.0512 21.5964 7.00436 21.5437 6.95752 21.491C7.95292 20.6947 8.93661 19.9042 9.94373 19.0962C10.0433 19.4944 10.137 19.8691 10.2306 20.2438C10.336 20.6596 10.4356 21.0811 10.5468 21.4969C10.6112 21.7486 10.5468 21.9594 10.3712 22.1409C10.0725 22.4513 9.76807 22.7557 9.45774 23.0544C9.36405 23.1422 9.24109 23.1949 9.12984 23.2593C9.02444 23.2534 8.91905 23.2534 8.81951 23.2534Z" fill="#006270"/>
<path d="M21.9295 0.82736C22.9249 0.821505 23.4518 1.47144 23.3113 2.50783C23.2059 3.26317 22.9132 3.95409 22.5501 4.61574C21.9412 5.71654 21.1741 6.69438 20.2841 7.58438C17.7839 10.0787 15.3247 12.6199 12.6956 14.9855C10.0666 17.351 7.34975 19.6053 4.49236 21.6898C3.99466 22.0528 3.75459 22.0294 3.31544 21.5903C3.05781 21.3326 2.80018 21.075 2.54254 20.8174C2.12096 20.4016 2.10339 20.144 2.44886 19.6756C4.63874 16.6718 7.016 13.8203 9.52207 11.0741C11.8876 8.4861 14.3937 6.03273 16.8939 3.57935C17.9654 2.53125 19.1775 1.66467 20.5944 1.13184C21.0219 0.973743 21.4786 0.891768 21.9177 0.780518C21.9177 0.786373 21.9236 0.809794 21.9295 0.82736Z" fill="#006270"/>
<path d="M12.0285 6.50729C10.7462 7.86572 9.47558 9.20658 8.19327 10.5592C8.14643 10.5182 8.09373 10.4772 8.04689 10.4245C5.91556 8.30487 3.79008 6.17353 1.66461 4.04806C1.29572 3.68503 1.29572 3.32786 1.65875 2.96483C2.08033 2.54325 2.50192 2.11581 2.92935 1.69423C3.21041 1.41903 3.49146 1.37804 3.81936 1.57712C6.53622 3.19904 9.24137 4.82681 11.9524 6.44873C11.9758 6.4663 11.9992 6.48387 12.0285 6.50729Z" fill="#006270"/>
<path d="M13.5857 15.9519C14.9441 14.6696 16.285 13.4049 17.6434 12.1226C17.6786 12.1694 17.7195 12.228 17.7547 12.2865C19.3473 14.939 20.94 17.5856 22.5326 20.238C22.7902 20.6654 22.7551 20.9172 22.4038 21.2685C21.9881 21.6843 21.5723 22.1058 21.1507 22.5216C20.8404 22.8261 20.4657 22.8319 20.1612 22.5274C17.9889 20.361 15.8224 18.1945 13.656 16.028C13.6267 16.0046 13.6091 15.9812 13.5857 15.9519Z" fill="#006270"/>
<path d="M11.2614 4.50442C10.4943 4.0477 9.73312 3.59099 8.97192 3.13427C9.33495 2.76539 9.67456 2.3848 10.0493 2.03933C10.2659 1.84025 10.6173 1.87538 10.8339 2.08032C11.1794 2.40822 11.519 2.74197 11.841 3.08743C12.0577 3.32164 12.0577 3.66711 11.8527 3.91303C11.6771 4.11797 11.4663 4.30534 11.2614 4.50442Z" fill="#006270"/>
<path d="M21.0103 15.161C20.5594 14.4115 20.1027 13.6503 19.6401 12.8774C19.8392 12.6783 20.0266 12.4734 20.2374 12.2919C20.4774 12.087 20.8288 12.087 21.063 12.2977C21.4084 12.6198 21.748 12.9594 22.0701 13.3049C22.275 13.5274 22.3102 13.8728 22.1111 14.0895C21.7656 14.4642 21.385 14.8038 21.0103 15.161Z" fill="#006270"/>
</g>
<defs>
<clipPath id="clip0_17_454">
<rect width="22.4844" height="22.4844" fill="white" transform="translate(0.885498 0.768799)"/>
</clipPath>
</defs>
</svg>
