<svg width="16" height="16" viewBox="0 0 16 16" fill="none" xmlns="http://www.w3.org/2000/svg">
<g clip-path="url(#clip0_17_432)">
<path d="M14.3675 15.9773C10.2959 15.9773 6.22418 15.9773 2.15251 15.9773C2.08727 15.962 2.02203 15.9466 1.95679 15.9313C1.31208 15.7432 0.94751 15.2482 0.94751 14.5497C0.94751 11.0691 0.94751 7.58454 0.951347 4.10386C0.951347 3.92349 0.982048 3.73545 1.03961 3.55892C1.19311 3.06003 1.74189 2.67628 2.24461 2.6993C2.24461 2.74919 2.24461 2.80292 2.24461 2.85664C2.24461 3.38239 2.24077 3.90814 2.24461 4.43389C2.24845 5.30886 2.87014 5.94589 3.7451 5.96508C4.04827 5.97276 4.3476 5.97276 4.65077 5.96508C5.53342 5.94206 6.15127 5.30118 6.1551 4.41854C6.1551 3.89279 6.1551 3.36704 6.1551 2.84129C6.1551 2.7914 6.1551 2.73768 6.1551 2.68395C7.56733 2.68395 8.96421 2.68395 10.3649 2.68395C10.3649 3.26343 10.3649 3.83139 10.3649 4.40319C10.3649 5.31653 10.9981 5.95357 11.9115 5.96508C12.1878 5.96892 12.4679 5.96892 12.7442 5.96508C13.6422 5.95357 14.2716 5.31653 14.2754 4.41854C14.2754 3.89279 14.2754 3.36704 14.2754 2.84129C14.2754 2.7914 14.2754 2.73768 14.2754 2.64941C14.4826 2.71849 14.6745 2.75303 14.8395 2.83746C15.3576 3.10609 15.5764 3.55508 15.5764 4.13072C15.5725 7.59222 15.5764 11.0537 15.5725 14.519C15.5725 14.6035 15.5725 14.6841 15.561 14.7685C15.5265 15.1177 15.373 15.4055 15.112 15.6435C14.9009 15.8315 14.64 15.9198 14.3675 15.9773ZM8.25042 7.91073C6.60794 7.91073 4.96929 7.91073 3.32681 7.91073C2.87781 7.91073 2.65139 8.13715 2.65139 8.58615C2.65139 10.3476 2.65139 12.1129 2.65139 13.8743C2.65139 14.3233 2.87781 14.5459 3.32681 14.5459C6.6041 14.5459 9.88139 14.5459 13.1587 14.5459C13.6154 14.5459 13.8379 14.3233 13.8379 13.8628C13.8379 12.1052 13.8379 10.3476 13.8379 8.58999C13.8379 8.13331 13.6154 7.91073 13.1587 7.91073C11.5239 7.91073 9.88523 7.91073 8.25042 7.91073Z" fill="#006270"/>
<path d="M11.3324 3.00234C11.3324 2.54183 11.3324 2.07748 11.3324 1.61697C11.3324 1.21403 11.532 1.01831 11.9311 1.01831C12.1921 1.01831 12.4569 1.01831 12.7178 1.01831C13.0632 1.02215 13.2704 1.22554 13.2743 1.57476C13.2781 2.33844 13.2743 3.10212 13.2743 3.86579C13.2743 4.06151 13.2781 4.25339 13.2743 4.44911C13.2666 4.79449 13.067 4.99021 12.7255 4.99404C12.4415 4.99788 12.1614 4.99788 11.8774 4.99404C11.5358 4.99021 11.3325 4.79065 11.3286 4.44911C11.3286 3.96557 11.3324 3.48204 11.3324 3.00234Z" fill="#006270"/>
<path d="M5.15788 3.00635C5.15788 3.47454 5.15788 3.94272 5.15788 4.40707C5.15788 4.7985 4.96216 4.99422 4.5784 4.99422C4.32129 4.99422 4.06417 4.99422 3.80321 4.99422C3.40794 4.99422 3.21606 4.80234 3.21606 4.39939C3.21606 3.85062 3.21606 3.29801 3.21606 2.74923C3.21606 2.36548 3.21222 1.98172 3.21606 1.59412C3.21606 1.21036 3.41562 1.01465 3.80321 1.01465C4.06033 1.01465 4.31745 1.01465 4.5784 1.01465C4.96216 1.01465 5.15788 1.21804 5.16172 1.6018C5.15788 2.06998 5.15788 2.53817 5.15788 3.00635Z" fill="#006270"/>
<path d="M8.26601 8.93157C8.44638 8.93157 8.62674 8.92773 8.80711 8.93157C9.05271 8.93541 9.18703 9.06589 9.19087 9.31149C9.1947 9.67606 9.1947 10.0406 9.19087 10.4052C9.18703 10.647 9.06423 10.7851 8.8263 10.789C8.44638 10.8005 8.06646 10.8005 7.68654 10.789C7.44861 10.7813 7.32581 10.6431 7.32197 10.4014C7.31813 10.0368 7.31813 9.67223 7.32197 9.30766C7.32581 9.06205 7.46012 8.93157 7.70573 8.92773C7.89761 8.92773 8.08181 8.93157 8.26601 8.93157Z" fill="#006270"/>
<path d="M9.19485 12.8305C9.19485 13.0109 9.19869 13.1913 9.19485 13.3716C9.18717 13.6172 9.0567 13.7516 8.81109 13.7554C8.44652 13.7592 8.08195 13.7592 7.71738 13.7554C7.46794 13.7516 7.33362 13.6172 7.32978 13.364C7.32594 13.0032 7.32594 12.6425 7.32978 12.2818C7.33362 12.0323 7.46794 11.8942 7.72122 11.8903C8.08195 11.8865 8.44268 11.8865 8.80342 11.8903C9.06437 11.8942 9.19485 12.0323 9.19869 12.2894C9.19485 12.4698 9.19485 12.6502 9.19485 12.8305Z" fill="#006270"/>
<path d="M5.29942 8.93157C5.48363 8.93157 5.66783 8.92773 5.85587 8.93157C6.08229 8.93541 6.2166 9.05054 6.22428 9.27695C6.23579 9.66455 6.23579 10.056 6.22428 10.4436C6.22044 10.6585 6.09764 10.7813 5.88273 10.7851C5.49514 10.7966 5.10371 10.7966 4.71611 10.7851C4.48586 10.7774 4.37073 10.6431 4.36689 10.4052C4.36305 10.0406 4.36305 9.67606 4.36689 9.31149C4.37073 9.06205 4.49737 8.93541 4.74681 8.92773C4.93101 8.92773 5.11522 8.93157 5.29942 8.93157Z" fill="#006270"/>
<path d="M11.2322 8.93164C11.4164 8.93164 11.6006 8.9278 11.7887 8.93164C12.0189 8.93931 12.1494 9.06595 12.1532 9.29621C12.1571 9.6723 12.1571 10.0445 12.1532 10.4206C12.1494 10.647 12.0343 10.7814 11.8079 10.789C11.4241 10.8006 11.0404 10.8006 10.6566 10.789C10.4225 10.7814 10.3035 10.6547 10.2997 10.4168C10.292 10.0484 10.292 9.67613 10.2997 9.30772C10.3035 9.05444 10.4379 8.93164 10.6988 8.93164C10.8715 8.9278 11.0519 8.93164 11.2322 8.93164Z" fill="#006270"/>
<path d="M5.29181 13.7557C5.11145 13.7557 4.93108 13.7595 4.75072 13.7557C4.50128 13.7518 4.3708 13.6213 4.3708 13.3757C4.36696 13.0073 4.36696 12.6351 4.3708 12.2667C4.37464 12.0364 4.49744 11.8983 4.72769 11.8944C5.10761 11.8868 5.48753 11.8868 5.86745 11.8944C6.09386 11.8983 6.2205 12.0249 6.22818 12.2513C6.23969 12.6312 6.23585 13.0112 6.22818 13.3911C6.22434 13.6329 6.08619 13.7518 5.84826 13.7557C5.66022 13.7595 5.47602 13.7557 5.29181 13.7557Z" fill="#006270"/>
<path d="M12.1497 12.8231C12.1497 13.0073 12.1535 13.1915 12.1497 13.3796C12.1459 13.6175 12.0154 13.7518 11.7775 13.7557C11.4091 13.7595 11.0368 13.7595 10.6684 13.7557C10.4305 13.7518 10.2961 13.629 10.2885 13.3872C10.2808 13.0112 10.2808 12.6389 10.2885 12.2628C10.2923 12.0249 10.4266 11.8983 10.6684 11.8944C11.0368 11.8868 11.4091 11.8868 11.7775 11.8944C12.0154 11.8983 12.142 12.0326 12.1497 12.2705C12.1535 12.4547 12.1497 12.6389 12.1497 12.8231Z" fill="#006270"/>
</g>
<defs>
<clipPath id="clip0_17_432">
<rect width="14.9896" height="14.9896" fill="white" transform="translate(0.748047 0.987793)"/>
</clipPath>
</defs>
</svg>
