<svg width="16" height="17" viewBox="0 0 16 17" fill="none" xmlns="http://www.w3.org/2000/svg">
<g clip-path="url(#clip0_3_6308)">
<path d="M8.30338 15.9929C8.01014 15.9924 7.71986 15.992 7.42662 15.9916C7.38812 15.9826 7.35259 15.9737 7.31409 15.9677C6.96761 15.9168 6.61813 15.8867 6.27463 15.8151C2.58505 15.0395 0.0310332 11.5227 0.424626 7.7615C0.58689 6.19778 1.16064 4.79461 2.20799 3.61726C3.99413 1.60866 6.24356 0.773725 8.90302 1.0946C10.3601 1.27152 11.6507 1.8688 12.76 2.83311C14.1119 4.00808 14.9451 5.4785 15.2505 7.24434C15.2975 7.51988 15.3267 7.80132 15.3618 8.0798C15.3614 8.37305 15.361 8.66333 15.3605 8.95657C15.3485 9.05726 15.3365 9.15796 15.3245 9.25865C15.1504 10.8224 14.5737 12.2137 13.5382 13.4029C12.3662 14.7489 10.8988 15.5791 9.13885 15.8816C8.86331 15.9285 8.58187 15.9548 8.30338 15.9929ZM7.87731 7.66886C7.81523 7.58286 7.78865 7.53543 7.7502 7.49687C7.08768 6.82942 6.4222 6.16494 5.75969 5.4975C5.70941 5.44707 5.65617 5.39367 5.59699 5.35211C5.37212 5.18591 5.07294 5.19139 4.85053 5.36582C4.53619 5.61121 4.52669 6.02588 4.83132 6.33735C5.51158 7.02259 6.19184 7.70487 6.87507 8.38715C6.91056 8.42275 6.94605 8.46427 6.98745 8.5058C6.94296 8.55017 6.90735 8.59158 6.87175 8.62708C6.20727 9.29256 5.53982 9.95507 4.87534 10.6206C4.82788 10.6679 4.78041 10.7182 4.73886 10.7714C4.53408 11.0377 4.57204 11.408 4.82942 11.6246C5.09864 11.8501 5.43932 11.821 5.71816 11.543C6.39748 10.8657 7.07679 10.1884 7.75907 9.51108C7.79466 9.47559 7.83618 9.44011 7.88068 9.3987C7.92505 9.44024 7.9635 9.47584 8.00195 9.5144C8.66446 10.1818 9.32995 10.8463 9.99246 11.5138C10.0368 11.5583 10.0812 11.6028 10.1315 11.6414C10.5013 11.9351 11.0259 11.7523 11.1302 11.2933C11.1898 11.0387 11.0865 10.84 10.909 10.6621C10.2287 9.98274 9.55438 9.30343 8.87708 8.62116C8.84159 8.58556 8.8061 8.547 8.75583 8.49065C8.80921 8.44629 8.85665 8.41674 8.89224 8.38125C9.55969 7.71874 10.2242 7.05326 10.8916 6.39074C10.9391 6.34342 10.9865 6.29313 11.0281 6.23988C11.2032 6.01206 11.1977 5.70696 11.0203 5.48158C10.772 5.1702 10.3603 5.1607 10.0488 5.46829C9.36652 6.1456 8.68721 6.8229 8.01085 7.50318C7.96637 7.53273 7.93964 7.58305 7.87731 7.66886Z" fill="#2A3950"/>
</g>
<defs>
<clipPath id="clip0_3_6308">
<rect width="14.9999" height="14.9999" fill="white" transform="translate(0.37207 0.980957) rotate(0.0847422)"/>
</clipPath>
</defs>
</svg>
