<svg width="20" height="20" viewBox="0 0 20 20" fill="none" xmlns="http://www.w3.org/2000/svg">
<g clip-path="url(#clip0_3_6357)">
<path d="M0.366242 5.51669C0.456635 5.25057 0.644421 5.05585 0.839707 4.86114C2.16164 3.55061 3.47982 2.23257 4.79801 0.91453C5.05339 0.65991 5.33858 0.525333 5.70218 0.62712C6.28319 0.789228 6.51465 1.48706 6.13895 1.96276C6.08635 2.03018 6.02626 2.09009 5.96618 2.15C5.1287 2.985 4.29497 3.82001 3.4575 4.65127C3.40868 4.69994 3.35237 4.73736 3.29981 4.77853C3.30728 4.79729 3.311 4.81605 3.31847 4.83856C3.38972 4.83867 3.46472 4.83878 3.53597 4.83888C7.58593 4.84487 11.6359 4.85086 15.6858 4.85685C16.5033 4.85806 17.3171 4.85551 18.1346 4.86047C18.5808 4.86113 18.8955 5.06785 19.0225 5.42803C19.198 5.92704 18.8935 6.45158 18.3646 6.54455C18.2633 6.56315 18.1583 6.563 18.0571 6.56285C13.2159 6.55569 8.37465 6.54853 3.53345 6.54136C3.4622 6.54126 3.39095 6.54115 3.2822 6.54099C3.3496 6.61234 3.39077 6.66115 3.43571 6.70622C4.29692 7.56999 5.15814 8.43 6.01561 9.29376C6.42749 9.71062 6.40789 10.2881 5.9724 10.6174C5.67207 10.8457 5.25582 10.8489 4.95241 10.6197C4.87375 10.5596 4.80635 10.492 4.7352 10.4244C3.43214 9.11744 2.12534 7.80677 0.818539 6.4961C0.627574 6.30457 0.447859 6.11305 0.365754 5.84669C0.365914 5.73794 0.366075 5.62919 0.366242 5.51669Z" fill="#2A3950"/>
<path d="M13.7974 19.3175C13.6288 19.2048 13.4264 19.1257 13.2954 18.9793C13.0295 18.6826 13.0452 18.2476 13.3006 17.9405C13.4096 17.8094 13.5335 17.6934 13.6537 17.5736C14.4273 16.7985 15.2047 16.0271 15.9821 15.252C16.0272 15.2071 16.0722 15.1584 16.1511 15.0723C16.0349 15.0721 15.9599 15.072 15.8849 15.0719C11.0437 15.0647 6.20622 15.0576 1.36501 15.0504C1.06127 15.0499 0.776331 15.0083 0.574205 14.7567C0.480628 14.6403 0.424589 14.4978 0.353534 14.3664C0.353695 14.2577 0.353856 14.1489 0.354022 14.0364C0.523547 13.5117 0.898798 13.3397 1.43129 13.3405C6.25373 13.3551 11.0762 13.3585 15.8986 13.3657C15.9699 13.3658 16.0411 13.3659 16.1499 13.366C16.0825 13.2909 16.0413 13.2459 15.9964 13.2008C15.1352 12.337 14.2739 11.477 13.4165 10.6133C13.0158 10.2077 13.0242 9.64519 13.4297 9.31204C13.7413 9.0575 14.1725 9.05064 14.4909 9.29861C14.5583 9.35121 14.6182 9.4113 14.6782 9.47138C16.0224 10.8196 17.3704 12.1716 18.7146 13.5198C19.1864 13.993 19.1858 14.458 18.7126 14.9298C17.3981 16.2404 16.08 17.5509 14.7693 18.8652C14.5777 19.0562 14.3862 19.2359 14.1236 19.3217C14.0149 19.3178 13.9061 19.3177 13.7974 19.3175Z" fill="#2A3950"/>
</g>
<defs>
<clipPath id="clip0_3_6357">
<rect width="18.7498" height="18.7498" fill="white" transform="translate(0.373535 0.547607) rotate(0.0847422)"/>
</clipPath>
</defs>
</svg>
